<?xml version="1.0" encoding="UTF-8"?>
<svg version="1.1" width="16.016" height="27.281" viewBox="0 0 16.016 27.281" xmlns="http://www.w3.org/2000/svg"><path d="m3.9336 4.0703c2.1758 0 3.9375 1.7656 3.9375 3.9375v15.336c0 2.1758-1.7617 3.9375-3.9375 3.9375-2.1719 0-3.9336-1.7617-3.9336-3.9375v-15.336c0-2.1719 1.7617-3.9375 3.9336-3.9375z"/><path d="m3.9336 4.0703h8.1445c2.1719 0 3.9375 1.7656 3.9375 3.9375v4.0703c0 2.1758-1.7656 3.9375-3.9375 3.9375h-8.1445c-2.1719 0-3.9336-1.7617-3.9336-3.9375v-4.0703c0-2.1719 1.7617-3.9375 3.9336-3.9375z"/><path d="m12.078 0c2.1719 0 3.9375 1.7617 3.9375 3.9375v8.1406c0 2.1758-1.7656 3.9375-3.9375 3.9375-2.1758 0-3.9375-1.7617-3.9375-3.9375v-8.1406c0-2.1758 1.7617-3.9375 3.9375-3.9375z"/><path d="m3.9336 4.2773h8.1445c2.0625 0 3.7305 1.668 3.7305 3.7305v4.0703c0 2.0625-1.668 3.7344-3.7305 3.7344h-8.1445c-2.0625 0-3.7305-1.6719-3.7305-3.7344v-4.0703c0-2.0625 1.668-3.7305 3.7305-3.7305z" fill="#fff"/><path d="m12.078 0.20312c2.0625 0 3.7305 1.6719 3.7305 3.7344v8.1406c0 2.0625-1.668 3.7344-3.7305 3.7344s-3.7344-1.6719-3.7344-3.7344v-8.1406c0-2.0625 1.6719-3.7344 3.7344-3.7344z" fill="#fff"/><path d="m12.078 0.60938c1.8359 0 3.3242 1.4883 3.3242 3.3281v8.1406c0 1.8398-1.4883 3.3281-3.3242 3.3281s-3.3242-1.4883-3.3242-3.3281v-8.1406c0-1.8398 1.4883-3.3281 3.3242-3.3281z"/><path d="m0 19.41h7.8711v7.8711h-7.8711z"/><path d="m3.9336 4.2773c2.0625 0 3.7344 1.668 3.7344 3.7305v14.93c0 2.0625-1.6719 3.7344-3.7344 3.7344s-3.7305-1.6719-3.7305-3.7344v-14.93c0-2.0625 1.668-3.7305 3.7305-3.7305z" fill="#fff"/><path d="m3.9336 4.6836h8.1445c1.8359 0 3.3242 1.4883 3.3242 3.3242v4.0703c0 1.8398-1.4883 3.3281-3.3242 3.3281h-8.1445c-1.8359 0-3.3242-1.4883-3.3242-3.3281v-4.0703c0-1.8359 1.4883-3.3242 3.3242-3.3242z"/><path d="m3.9258 4.6758c1.8398 0 3.3281 1.4883 3.3281 3.3242v14.93c0 1.8398-1.4883 3.3281-3.3281 3.3281-1.8359 0-3.3242-1.4883-3.3242-3.3281v-14.93c0-1.8359 1.4883-3.3242 3.3242-3.3242z"/><path d="m5.0938 16.961c0 0.63672-0.51562 1.1523-1.1523 1.1523-0.63672 0-1.1523-0.51562-1.1523-1.1523 0-0.64063 0.51562-1.1562 1.1523-1.1562 0.63672 0 1.1523 0.51562 1.1523 1.1562z" fill="#333"/><path d="m5.0938 19.945c0 0.63672-0.51562 1.1523-1.1523 1.1523-0.63672 0-1.1523-0.51562-1.1523-1.1523 0-0.63672 0.51562-1.1523 1.1523-1.1523 0.63672 0 1.1523 0.51562 1.1523 1.1523z" fill="#333"/><path d="m5.0938 22.93c0 0.64062-0.51562 1.1562-1.1523 1.1562-0.63672 0-1.1523-0.51563-1.1523-1.1562 0-0.63672 0.51562-1.1523 1.1523-1.1523 0.63672 0 1.1523 0.51562 1.1523 1.1523z" fill="#ff0"/><g fill="#333"><path d="m5.0938 13.973c0 0.63672-0.51562 1.1523-1.1523 1.1523-0.63672 0-1.1523-0.51562-1.1523-1.1523 0-0.63672 0.51562-1.1523 1.1523-1.1523 0.63672 0 1.1523 0.51563 1.1523 1.1523z"/><path d="m5.0938 10.988c0 0.63672-0.51562 1.1523-1.1523 1.1523-0.63672 0-1.1523-0.51562-1.1523-1.1523s0.51562-1.1562 1.1523-1.1562c0.63672 0 1.1523 0.51953 1.1523 1.1562z"/><path d="m5.0938 8c0 0.63672-0.51562 1.1562-1.1523 1.1562-0.63672 0-1.1523-0.51953-1.1523-1.1562s0.51562-1.1523 1.1523-1.1523c0.63672 0 1.1523 0.51562 1.1523 1.1523z"/><path d="m13.238 3.9297c0 0.63672-0.51563 1.1523-1.1523 1.1523-0.63672 0-1.1562-0.51562-1.1562-1.1523 0-0.63672 0.51953-1.1523 1.1562-1.1523 0.63672 0 1.1523 0.51562 1.1523 1.1523z"/><path d="m13.238 8c0 0.63672-0.51563 1.1562-1.1523 1.1562-0.63672 0-1.1562-0.51953-1.1562-1.1562s0.51953-1.1523 1.1562-1.1523c0.63672 0 1.1523 0.51562 1.1523 1.1523z"/><path d="m13.238 12.074c0 0.63672-0.51563 1.1523-1.1523 1.1523-0.63672 0-1.1562-0.51562-1.1562-1.1523s0.51953-1.1562 1.1562-1.1562c0.63672 0 1.1523 0.51953 1.1523 1.1562z"/></g></svg>
