<?xml version="1.0" encoding="UTF-8"?>
<svg version="1.1" viewBox="0 0 405 730" xmlns="http://www.w3.org/2000/svg"><g fill="#333"><path d="m0 599.38h210v15h-210z"/><path d="m0 444.38h210v15h-210z"/><path d="m0 294.38h210v15h-210z"/><path d="m0 149.38h210v15h-210z"/></g><path d="M 18,35.595 63,0 108,35.595 V 730 H 18 Z" fill="#7d7d7d"/><path d="m250.41 391.63a124.14 125.36 0 0 0-118.52 113.32 124.14 125.36 0 0 0-0.03 0.198l-21.317 132.06h289.91l-21.563-133.59v-3e-3a124.14 125.36 0 0 0-3e-3 -0.015l-1.312-8.129h-0.108a124.14 125.36 0 0 0-127.06-103.84z" stroke="#666" stroke-width="4.33"/><circle cx="255.5" cy="514.38" r="80" fill="#00c800" stroke="#000" stroke-width="5"/><path d="m250.41 101.63a124.14 125.36 0 0 0-118.52 113.32 124.14 125.36 0 0 0-0.03 0.198l-21.317 132.06h289.91l-21.563-133.59v-3e-3a124.14 125.36 0 0 0-3e-3 -0.015l-1.312-8.129h-0.108a124.14 125.36 0 0 0-127.06-103.84z" stroke="#666" stroke-width="4.33"/><circle cx="255.5" cy="224.38" r="80" fill="#00c800" stroke="#000" stroke-width="5"/></svg>
