<?xml version="1.0" encoding="UTF-8"?>
<svg xmlns="http://www.w3.org/2000/svg" width="1000" height="1000">
	<path fill="#000" d="m0,0h1000v1000H0z"/>
	<path fill="none" d="m40,40h920v920H40z" stroke="#FFF" stroke-width="60"/>
	<path fill="#FFF" d="M673.5,599.1s137.4-38.1,137.4-210.9c0-192.3-176.3-225.7-218-225.7H190.4v674.5c56.4-.1,157.9.5,158,.5v-221.2l153.1-.2,139.9,221.5h181.3l-149.2-238.5ZM593,464c-17.3,0-244.4-.5-244.4-.5v-149.5h244.4c14.6,0,54.5,21.1,54.5,74.2s-37.2,75.8-54.5,75.8Z"/>
</svg>