<?xml version="1.0" encoding="UTF-8"?>
<svg version="1.1" viewBox="0 0 70 32" xmlns="http://www.w3.org/2000/svg"><path d="m0 0h64v64h-64z" fill="none" fill-opacity="0" stop-color="#000000" stroke-linecap="round" stroke-linejoin="round" stroke-width="6.4" style="paint-order:markers stroke fill"/><g transform="translate(3,-37)"><path d="m0 42h64v22h-64z"/><path d="m1.297 43.297h61.406v19.405h-61.406z" fill="none" stroke="#fff" stroke-width=".5945"/><g fill="#fff" style="font-feature-settings:normal;font-variant-caps:normal;font-variant-ligatures:normal;font-variant-numeric:normal"><path transform="translate(0,21)" d="m20.12 28.85q0-0.82-0.351-1.625-0.367-0.777-0.967-1.407-0.63-0.615-1.421-0.966-0.791-0.352-1.611-0.352t-1.612 0.352q-0.79 0.366-1.406 0.966-0.615 0.63-0.981 1.407-0.367 0.79-0.352 1.626 0 0.82 0.352 1.61 0.366 0.792 0.981 1.407t1.406 0.967q0.777 0.366 1.612 0.366 0.336 0 0.659 0.147 0.322 0.146 0.586 0.41 0.249 0.263 0.395 0.586 0.147 0.337 0.161 0.659 0 0.337-0.16 0.644-0.147 0.337-0.396 0.586-0.264 0.264-0.586 0.41-0.337 0.147-0.66 0.162-0.336 0-0.644-0.161-0.337-0.147-0.586-0.41-0.264-0.25-0.425-0.587-0.146-0.322-0.146-0.644h-2.696q0 0.82 0.367 1.626 0.38 0.806 1.04 1.465 0.644 0.659 1.45 1.025 0.806 0.381 1.64 0.381 0.82 0 1.627-0.38 0.805-0.382 1.479-1.026 0.645-0.645 1.01-1.465 0.382-0.806 0.382-1.626t-0.381-1.64q-0.381-0.806-1.011-1.466-0.66-0.644-1.48-1.025-0.805-0.38-1.625-0.366-0.674 0-1.158-0.498-0.498-0.484-0.498-1.157 0-0.674 0.498-1.172 0.484-0.484 1.158-0.484t1.171 0.484q0.484 0.498 0.47 1.172zm7.485-1.655h3.15v-2.695h-8.995v2.695h3.15v12.305h2.694zm13.653 7.808v-6.006q0-0.82-0.381-1.626-0.38-0.806-1.01-1.48-0.66-0.644-1.48-1.01-0.806-0.381-1.626-0.381t-1.64 0.38q-0.807 0.382-1.451 1.012-0.66 0.659-1.04 1.48-0.381 0.805-0.366 1.625v6.006q0 0.82 0.366 1.626 0.38 0.806 1.04 1.465 0.644 0.659 1.45 1.025 0.806 0.381 1.64 0.381 0.821 0 1.627-0.38 0.805-0.382 1.48-1.026 0.644-0.645 1.01-1.465 0.38-0.806 0.38-1.626zm-2.696 0q0 0.337-0.16 0.644-0.147 0.337-0.396 0.586-0.264 0.264-0.586 0.41-0.337 0.147-0.66 0.162-0.336 0-0.644-0.161-0.337-0.147-0.586-0.41-0.263-0.25-0.425-0.587-0.146-0.322-0.146-0.644v-6.006q0-0.337 0.146-0.66 0.147-0.321 0.425-0.585 0.25-0.25 0.586-0.396 0.322-0.146 0.645-0.16 0.337 0 0.659 0.16 0.322 0.147 0.586 0.396 0.249 0.264 0.395 0.586 0.147 0.337 0.161 0.66zm7.867-4.204v-3.604h1.801q0.337 0 0.66 0.161 0.322 0.147 0.586 0.396 0.249 0.264 0.395 0.586 0.147 0.337 0.147 0.66 0 0.336-0.147 0.644-0.146 0.337-0.395 0.586-0.264 0.263-0.586 0.424-0.337 0.147-0.66 0.147zm0 2.695h1.801q0.82 0 1.626-0.366 0.806-0.38 1.48-1.04 0.644-0.645 1.01-1.45 0.382-0.806 0.382-1.64 0-0.821-0.381-1.627t-1.011-1.48q-0.66-0.644-1.48-1.01-0.805-0.381-1.626-0.381h-4.51v15h2.71z" fill="#fff" stroke-width="1.2817" aria-label="STOP"/></g></g></svg>
