<?xml version="1.0" encoding="UTF-8"?>
<svg version="1.1" viewBox="0 0 16 16" xmlns="http://www.w3.org/2000/svg"><path transform="matrix(.7003 0 0 .7003 -73.398 -139.57)" d="m105.33 221.62h21.81v-21.81h-21.81zm0 0" fill="#fff" fill-rule="evenodd" stroke="#000" stroke-linecap="round" stroke-linejoin="round" stroke-miterlimit="10" stroke-width="1.0456"/><path d="m4.2656 13.617v-10.277h3.3203c1.2578 0 2.082 0.050781 2.4688 0.15234 0.58594 0.15234 1.0703 0.49219 1.4648 1.0117 0.40234 0.51172 0.60156 1.1758 0.60156 1.9922 0 0.63672-0.11328 1.1719-0.33984 1.6016-0.22656 0.42188-0.51562 0.76172-0.875 1.0078-0.34766 0.25-0.70312 0.41016-1.0703 0.49219-0.49609 0.09375-1.2109 0.14062-2.1523 0.14062h-1.3438v3.8789zm2.0742-8.543v2.9219h1.1367c0.81641 0 1.3555-0.054688 1.6289-0.16406 0.27734-0.10938 0.49219-0.27734 0.64453-0.50391 0.15625-0.23047 0.23828-0.5 0.23828-0.80078 0-0.37109-0.10547-0.67578-0.32422-0.91797-0.21875-0.25-0.5-0.40234-0.83594-0.46094-0.24609-0.050782-0.74609-0.074219-1.4961-0.074219z"/></svg>
