<?xml version="1.0" encoding="UTF-8"?>
<svg version="1.1" viewBox="0 0 100 101" xmlns="http://www.w3.org/2000/svg"><g transform="translate(-107.73 -4.8419)"><rect x="107.73" y="4.8419" width="100" height="101"/><rect x="111.65" y="8.7422" width="92.17" height="93.199" fill="none" stroke="#fff" stroke-width="5.7023"/><g fill="#fff"><path d="m159.59 62.92v-9.6484h24.922v22.812c-2.4219 2.3438-5.931 4.4076-10.527 6.1914-4.5964 1.7839-9.2513 2.6758-13.965 2.6758-5.9896-1e-6 -11.211-1.2565-15.664-3.7695-4.4531-2.513-7.7995-6.1068-10.039-10.781-2.2396-4.6745-3.3594-9.7591-3.3594-15.254 0-5.9635 1.25-11.263 3.75-15.898 2.5-4.6354 6.1588-8.1901 10.977-10.664 3.6718-1.901 8.2422-2.8515 13.711-2.8516 7.1093 5.8e-5 12.663 1.4909 16.66 4.4727 3.9973 2.9818 6.569 7.1029 7.7148 12.363l-11.484 2.1484c-0.80733-2.8125-2.3243-5.0325-4.5508-6.6602-2.2266-1.6276-5.0065-2.4414-8.3398-2.4414-5.0521 4.9e-5 -9.069 1.6016-12.051 4.8047-2.9818 3.2032-4.4727 7.9558-4.4727 14.258-1e-5 6.7969 1.5104 11.895 4.5312 15.293 3.0208 3.3984 6.9791 5.0977 11.875 5.0977 2.4218 9e-6 4.8502-0.47525 7.2852-1.4258 2.4348-0.95051 4.5247-2.1029 6.2695-3.457v-7.2656z" fill="#fff"/></g></g></svg>
