<svg xmlns="http://www.w3.org/2000/svg" viewBox="0 0 500 500"><g fill="#fff" stroke="#000" stroke-width=".265" style="-inkscape-stroke:hairline" transform="translate(-50 -50)"><path fill="#000" stroke="none" d="M540 550c5.54 0 10-4.46 10-10V60c0-5.54-4.46-10-10-10H60c-5.54 0-10 4.46-10 10v480c0 5.54 4.46 10 10 10zm-7.5-10h-465a7.484 7.484 0 0 1-7.5-7.5v-465c0-4.155 3.345-7.5 7.5-7.5h465c4.155 0 7.5 3.345 7.5 7.5v465c0 4.155-3.345 7.5-7.5 7.5"/><rect width="480" height="480" x="-540" y="-540" stroke-width=".212" ry="7.5" style="-inkscape-stroke:hairline" transform="scale(-1)"/><path fill="#000" stroke-width=".22" d="M75 382h225v143l240-225L300 75v143H75Z" style="-inkscape-stroke:hairline"/></g></svg>