<svg xmlns="http://www.w3.org/2000/svg" viewBox="0 0 529.167 529.167"><rect width="524.83" height="524.83" x="2.169" y="2.169" fill="#fff" stroke="#000" stroke-linecap="square" stroke-width="4.337" paint-order="stroke fill markers" rx=".529" ry=".529"/><path d="M195.908 228.984v-96.728h12.917v86.342h51.524v10.386zm57.265-86.34v-10.388h82.525v10.387h-34.732v86.341h-12.917v-86.34zM90.491 395.175v-96.728h69.536v10.387h-56.619v31.615h52.457v10.387h-52.457v33.952h56.62v10.387zm78.148-86.341v-10.387h82.525v10.387H216.43v86.341h-12.917v-86.341zm135.556 87.9q-14.783 0-25.906-6.363-11.123-6.427-17.366-17.657-6.171-11.296-6.171-25.838 0-14.671 6.171-25.902 6.172-11.296 17.295-17.658 11.194-6.427 25.977-6.427 8.396 0 15.716 2.272 7.391 2.272 13.204 6.622 5.884 4.284 9.76 10.322 3.874 6.037 5.381 13.633h-13.204q-1.292-5.259-4.09-9.349t-6.818-6.88q-4.018-2.857-9.113-4.286-5.023-1.428-10.836-1.428-11.266 0-19.447 4.999-8.181 4.934-12.63 13.763-4.45 8.764-4.45 20.32 0 11.49 4.45 20.254 4.449 8.764 12.63 13.762 8.18 4.934 19.447 4.934 5.813 0 10.836-1.428t9.042-4.22 6.817-6.816q2.87-4.09 4.234-9.348h13.132q-1.435 7.53-5.382 13.567-3.875 6.038-9.76 10.322-5.812 4.285-13.203 6.557-7.32 2.272-15.716 2.272m96.16 0q-12.343 0-21.385-3.96-9.042-4.026-13.994-11.361-4.951-7.336-4.951-17.398h13.204q0 6.88 3.157 11.88 3.23 4.933 9.33 7.595 6.099 2.597 14.639 2.597 7.821 0 13.562-2.078 5.813-2.077 9.042-5.907t3.23-9.024q0-4.025-2.082-7.011-2.08-2.986-6.745-5.193-4.593-2.273-12.343-3.96l-11.984-2.662q-16.362-3.636-23.61-9.738-7.247-6.102-7.247-15.97 0-8.374 4.52-14.542 4.593-6.232 12.918-9.672t19.447-3.441 19.304 3.7q8.252 3.636 12.845 10.387 4.592 6.752 4.88 16.035h-12.774q-.574-9.088-7.176-14.217-6.602-5.193-17.51-5.193-6.889 0-12.27 2.077-5.311 2.077-8.397 5.778-3.014 3.7-3.014 8.504 0 3.765 2.153 6.557 2.153 2.791 6.817 4.933 4.737 2.143 12.487 3.896l12.127 2.726q7.822 1.753 13.563 4.22t9.473 5.713q3.803 3.246 5.669 7.4 1.865 4.09 1.865 9.154 0 8.374-4.88 14.736-4.807 6.362-13.562 9.933-8.683 3.505-20.308 3.505" aria-label="LT ETCS" font-family="inter" font-size="139.784" style="-inkscape-font-specification:inter;text-align:center" text-anchor="middle"/></svg>