<?xml version="1.0" encoding="UTF-8"?>
<svg version="1.1" viewBox="0 0 72 32" xmlns="http://www.w3.org/2000/svg"><path d="m0 0h64v64h-64z" fill="none" fill-opacity="0" stop-color="#000000" stroke-linecap="round" stroke-linejoin="round" stroke-width="6.4" style="paint-order:markers stroke fill"/><path d="m4 5h64v22h-64z"/><path d="m5.297 6.297h61.406v19.405h-61.406z" fill="none" stroke="#fff" stroke-width=".5945"/><path d="m13.771 15.487 0.645 2.608h-1.23zm1.29 5.318 0.673 2.695h2.549l-3.15-15h-2.71l-3.15 15h2.71l0.587-2.695zm14.457-7.823q0-0.82-0.38-1.626-0.382-0.79-1.012-1.464-0.659-0.645-1.479-1.011-0.806-0.381-1.626-0.381h-4.512v15h2.71v-6.006h1.802q0.337 0 0.66 0.161 0.321 0.147 0.585 0.396 0.25 0.263 0.396 0.586 0.146 0.337 0.146 0.659v4.204h2.71v-4.204q0-0.776-0.176-1.362-0.19-0.586-0.454-0.953-0.263-0.38-0.483-0.556l-0.381-0.279 0.03-0.029q0.175-0.176 0.395-0.41 0.205-0.234 0.468-0.66 0.235-0.41 0.425-0.937 0.176-0.527 0.176-1.128m-4.497 1.818h-1.802v-3.604h1.802q0.337 0 0.66 0.161 0.321 0.147 0.585 0.396 0.25 0.264 0.396 0.586 0.146 0.337 0.146 0.66 0 0.336-0.146 0.644-0.147 0.337-0.396 0.586-0.264 0.263-0.586 0.424-0.322 0.147-0.659 0.147m15.967-1.818q0-0.82-0.381-1.626-0.38-0.79-1.01-1.464-0.66-0.645-1.48-1.011-0.806-0.381-1.626-0.381h-4.512v15h2.71v-6.006h1.802q0.337 0 0.659 0.161 0.322 0.147 0.586 0.396 0.249 0.263 0.395 0.586 0.147 0.337 0.147 0.659v4.204h2.71v-4.204q0-0.776-0.176-1.362-0.19-0.586-0.454-0.953-0.264-0.38-0.483-0.556l-0.381-0.279 0.029-0.029q0.176-0.176 0.395-0.41 0.206-0.234 0.47-0.66 0.234-0.41 0.424-0.937 0.176-0.527 0.176-1.128m-4.498 1.818h-1.802v-3.604h1.802q0.337 0 0.659 0.161 0.322 0.147 0.586 0.396 0.249 0.264 0.395 0.586 0.147 0.337 0.147 0.66 0 0.336-0.147 0.644-0.146 0.337-0.395 0.586-0.264 0.263-0.586 0.424-0.322 0.147-0.66 0.147zm9.669-0.192v-3.413h6.299v-2.695h-9.01v15h9.01v-2.695h-6.3v-3.501h2.696v-2.696zm13.418-3.413h3.15v-2.695h-8.995v2.695h3.15v12.305h2.695z" fill="#fff" style="font-feature-settings:normal;font-variant-caps:normal;font-variant-ligatures:normal;font-variant-numeric:normal" aria-label="ARRET"/></svg>
