<?xml version="1.0" encoding="UTF-8"?>
<svg version="1.1" viewBox="0 0 100 101" xmlns="http://www.w3.org/2000/svg"><g transform="translate(-107.73 -4.8419)"><rect x="107.73" y="4.8419" width="100" height="101"/><rect x="111.65" y="8.7422" width="92.17" height="93.199" fill="none" stroke="#fff" stroke-width="5.7023"/><g fill="#fff"><path d="m133.73 26.709h21.133c4.7656 5.8e-5 8.3984 0.36464 10.898 1.0938 3.3593 0.98964 6.2369 2.7474 8.6328 5.2734 2.3958 2.5261 4.2187 5.6185 5.4688 9.2773 1.25 3.6589 1.875 8.1706 1.875 13.535-5e-5 4.7136-0.58599 8.7761-1.7578 12.188-1.4324 4.1667-3.4766 7.5391-6.1328 10.117-2.0052 1.9531-4.7136 3.4766-8.125 4.5703-2.5521 0.80729-5.9636 1.2109-10.234 1.2109h-21.758zm11.562 9.6875v37.93h8.6328c3.2291 9e-6 5.5599-0.18228 6.9922-0.54688 1.875-0.46874 3.431-1.263 4.668-2.3828 1.2369-1.1198 2.246-2.9622 3.0273-5.5273 0.78121-2.5651 1.1718-6.0612 1.1719-10.488-4e-5 -4.427-0.39066-7.8255-1.1719-10.195-0.78129-2.3698-1.875-4.2187-3.2812-5.5469-1.4063-1.3281-3.1901-2.2265-5.3516-2.6953-1.6146-0.36454-4.7787-0.54683-9.4922-0.54688z" fill="#fff"/></g></g></svg>
