<?xml version="1.0" encoding="UTF-8"?>
<svg version="1.1" viewBox="0 0 80 50" xmlns="http://www.w3.org/2000/svg"><path d="m0 0h64v64h-64z" fill="none" fill-opacity="0" stop-color="#000000" stroke-linecap="round" stroke-linejoin="round" stroke-width="6.4" style="paint-order:markers stroke fill"/><g transform="matrix(1.9695 0 0 1.9695 -228.9 -34.955)" stroke-linecap="round" stroke-linejoin="round"><path d="m128.86 22.114c-0.604 0-1.21 0.23-1.673 0.693l-5.962 5.964a2.357 2.357 0 0 0 0 3.342l5.962 5.964a2.36 2.36 0 0 0 3.344 0l5.964-5.964c0.014-0.014 0.023-0.03 0.036-0.045 0.013 0.014 0.022 0.03 0.036 0.045l5.962 5.964a2.36 2.36 0 0 0 3.344 0l5.964-5.964a2.357 2.357 0 0 0 0-3.342l-5.964-5.964a2.36 2.36 0 0 0-3.344 0l-5.962 5.964c-0.014 0.014-0.023 0.03-0.036 0.044-0.013-0.014-0.022-0.03-0.036-0.044l-5.964-5.964a2.35 2.35 0 0 0-1.671-0.693" fill="#a0a" stop-color="#000000" stroke="#000" stroke-width=".5"/><rect x="120.75" y="29.802" width="31.477" height="1.28" ry=".254" fill="#fff" stop-color="#000000" stroke-width="1.8743"/></g></svg>
