<?xml version="1.0" encoding="UTF-8"?>
<svg version="1.1" viewBox="0 0 64 64" xmlns="http://www.w3.org/2000/svg"><path d="M0 0h64v64H0z"/><path d="M1.525 1.525h60.95v60.95H1.525z" fill="none" stroke="#fff" stroke-width="1.0497"/><path d="m13.436 12.964h-2.804v6.322h-3.715v-6.322h-2.804v15.524h2.804v-6.413h3.715v6.413h2.804zm5.822 10.4h-1.713v-0.85q0-0.333 0.257-0.59 0.243-0.258 0.592-0.273 0.348 0 0.606 0.257 0.243 0.258 0.258 0.607zm1.698 1.713v-2.562q0-2.562-2.562-2.562t-2.562 2.562v3.41q0 2.563 2.562 2.563t2.562-2.562h-1.698q0 0.333-0.258 0.591t-0.606 0.258q-0.35 0-0.592-0.258-0.257-0.258-0.257-0.591v-0.85zm4.26 3.411q0.348 0 0.53-0.03 0.167-0.015 0.334-0.061v0.091h1.698v-8.535h-1.698v5.973q0 0.333-0.258 0.591t-0.606 0.258-0.591-0.258q-0.258-0.258-0.258-0.591v-5.973h-1.713v5.973q0 2.562 2.562 2.562m9.854-5.973q0-2.562-2.562-2.562-0.349 0-0.516 0.015-0.181 0.03-0.348 0.076v-0.091h-1.698v8.535h1.698v-5.973q0-0.334 0.273-0.591 0.242-0.258 0.59-0.273 0.35 0 0.607 0.257 0.243 0.258 0.243 0.607zm4.715 5.973q0.652 0 1.137-0.167 0.47-0.151 0.803-0.485l-1.334-1.319q-0.257 0.258-0.621 0.258-0.334 0-0.576-0.258-0.258-0.258-0.258-0.591v-4.275h0.697v-1.698h-0.697v-3.881l-1.713 0.849v3.032h-0.698v1.698h0.698v4.275q0 2.562 2.562 2.562m9.157-5.973q0-2.562-2.562-2.562t-2.562 2.562v3.41q0 2.563 2.562 2.563t2.562-2.562zm-1.698 3.41q0 0.334-0.258 0.592t-0.606 0.258-0.592-0.258q-0.257-0.258-0.257-0.591v-3.411q0-0.334 0.257-0.591 0.243-0.258 0.592-0.273 0.348 0 0.606 0.257 0.243 0.258 0.258 0.607zm3.638 2.563h1.698v-8.535h-1.698zm0-9.4h1.698v-1.697h-1.698zm9.006 3.427q0-2.562-2.563-2.562-0.348 0-0.515 0.015-0.182 0.03-0.349 0.076v-0.091h-1.698v8.535h1.698v-5.973q0-0.334 0.273-0.591 0.243-0.258 0.591-0.273 0.35 0 0.607 0.257 0.242 0.258 0.242 0.607z" fill="#fff" style="font-feature-settings:normal;font-variant-caps:normal;font-variant-ligatures:normal;font-variant-numeric:normal" aria-label="Heurtoir"/><g fill="#fff" style="font-feature-settings:normal;font-variant-caps:normal;font-variant-ligatures:normal;font-variant-numeric:normal"><path transform="translate(0 1.999)" d="M15.362 38.167q-.531 0-.728.03-.197.031-.364.107v-2.001h4.973v-2.79H11.48v6.959l2.79.91q.015-.137.243-.273.227-.137.849-.137.348 0 .682.152.333.151.606.41.258.272.41.605.151.35.166.683v1.561q0 .349-.167.667-.151.349-.409.607-.273.273-.606.424-.349.152-.682.167-.35 0-.668-.167-.348-.151-.606-.424-.273-.258-.44-.607-.151-.333-.151-.667h-2.79q0 .85.38 1.683.393.834 1.076 1.516.667.682 1.5 1.061.834.394 1.699.394.848 0 1.682-.394t1.532-1.06q.667-.668 1.046-1.517.394-.834.394-1.683v-1.561q0-.85-.394-1.683-.395-.834-1.046-1.531-.683-.667-1.532-1.046-.834-.395-1.682-.395m11.324 10.87q.85 0 1.683-.394t1.531-1.06q.667-.668 1.046-1.517.395-.834.395-1.683v-6.216q0-.848-.395-1.682-.394-.834-1.046-1.532-.682-.667-1.53-1.046-.835-.394-1.684-.394t-1.698.394q-.833.395-1.5 1.046-.683.683-1.077 1.532-.394.834-.379 1.682v6.216q0 .85.38 1.683.393.834 1.075 1.516.668.682 1.501 1.061.85.394 1.698.394m0-2.79q-.348 0-.667-.166-.348-.151-.606-.424-.273-.258-.44-.607-.151-.333-.151-.667v-6.216q0-.348.151-.682.152-.333.44-.606.258-.258.606-.41.334-.151.667-.166.349 0 .683.167.333.151.606.409.258.273.41.606.15.349.166.682v6.216q0 .349-.167.667-.151.349-.41.607-.272.273-.605.424-.334.167-.683.167zm11.325 2.79q.85 0 1.683-.394t1.531-1.06q.667-.668 1.046-1.517.394-.834.394-1.683v-6.216q0-.848-.394-1.682t-1.046-1.532q-.682-.667-1.531-1.046-.834-.394-1.683-.394t-1.698.394q-.834.395-1.5 1.046-.683.683-1.077 1.532-.394.834-.38 1.682v6.216q0 .85.38 1.683.394.834 1.076 1.516.667.682 1.501 1.061.85.394 1.698.394m0-2.79q-.349 0-.667-.166-.349-.151-.606-.424-.273-.258-.44-.607-.152-.333-.152-.667v-6.216q0-.348.152-.682.152-.333.44-.606.257-.258.606-.41.334-.151.667-.166.349 0 .682.167.334.151.607.409.257.273.409.606.152.349.167.682v6.216q0 .349-.167.667-.152.349-.41.607-.272.273-.606.424-.333.167-.682.167zm12.719-5.745q-.606 0-1.015.121-.41.137-.698.35-.242-.198-.651-.35-.425-.12-1.046-.12-.35 0-.516.014-.182.03-.349.076v-.09h-1.698v8.534h1.698v-5.973q0-.333.273-.591.243-.258.592-.273.348 0 .606.258.243.258.243.606v5.973h1.713v-5.973q0-.333.257-.591.243-.258.592-.273.348 0 .606.258.243.258.243.606v5.973h1.713v-5.973q0-2.562-2.562-2.562z" fill="#fff" stroke-width="1.9405" aria-label="500m"/></g></svg>
