<svg version="1.1" viewBox="0 0 512 1060" xmlns="http://www.w3.org/2000/svg"><rect width="512" height="876" stroke-width=".94711"/><rect x="1.9959" y="882.49" width="508.01" height="176.01" rx="0" ry="0" fill="#fff" stroke="#000" stroke-width="3.9917"/><path d="m240.73 996.05h-23.056q0 6.9792 3.2403 13.834 3.2403 6.8545 8.724 12.463 5.4836 5.6082 12.463 8.7239 6.8545 3.2404 13.834 3.2404 6.9792 0 13.958-3.2404 6.8545-3.2403 12.463-8.7239 5.4836-5.4836 8.724-12.463 3.2403-6.8545 3.2403-13.834v-89.358h-23.056v89.358q0 2.8664-1.2463 5.4836-1.2463 2.8665-3.4896 4.9851-2.2433 2.2433-4.9851 3.4896-2.8664 1.2463-5.6082 1.3709-2.8664 0-5.4836-1.3709-2.8664-1.2463-4.9851-3.4896-2.2433-2.1186-3.4896-4.9851-1.2463-2.6172-1.2463-5.4836z" aria-label="J"/><path d="m251.57 831.11c-52.631-0.66738-98.033-18.352-135.87-54.946-32.527-31.477-51.614-69.405-57.939-113.78-2.0329-13.903-1.3553-27.584 3.5012-41.042 7.7929-21.578 26.089-33.701 49.355-34.48 33.431-1.2235 56.019 22.913 58.842 51.609 1.6941 17.24 5.8729 33.924 16.376 48.383 18.861 25.916 44.725 35.926 76.461 33.257 23.605-2.0021 41.675-13.792 57.035-30.476 10.278-11.011 15.925-24.136 16.489-39.152 0.45176-10.344 0.22586-20.688-1.2424-31.032-2.3718-16.684-10.729-30.476-22.475-42.043-27.219-26.805-200.81-200.54-212.1-213.67-17.958-20.799-28.913-45.047-35.689-71.518-7.4541-28.808-6.5506-57.504-2.9365-86.423 1.2424-9.8991 3.0494-19.687 6.0988-29.252 11.068-34.146 33.205-60.507 59.407-84.309 28.687-26.138 62.908-41.376 100.97-46.27 54.325-7.0072 105.71 2.8919 149.42 37.149 42.353 33.257 69.12 76.746 76.8 130.13 1.807 12.457 1.807 25.582-1.0165 38.151-4.8565 21.355-19.878 32.812-40.433 38.039-32.075 8.2307-65.393-12.902-70.249-44.824-1.4682-9.4542-1.4682-19.131-4.1788-28.474-8.4706-28.808-39.755-64.177-87.304-59.395-39.755 3.8929-73.525 33.368-80.075 71.63-3.9529 22.801 0.79059 44.268 16.376 62.509 8.8094 10.344 17.958 20.354 27.558 29.92 32.64 32.144 65.619 63.844 97.694 96.433 25.073 25.582 99.501 98.769 108.2 112.45 19.2 29.92 32.075 61.842 32.301 98.324 0.22562 32.7-5.0824 63.621-18.748 93.319-5.1953 11.234-11.859 21.467-19.313 31.254-30.607 40.597-72.056 64.4-121.75 75.3-13.666 3.1143-27.558 3.3368-41.562 3.2256z" fill="#fff"/></svg>
