<?xml version="1.0" encoding="UTF-8"?>
<svg enable-background="new 0 0 1000 1000" version="1.1" viewBox="0 0 1e3 1e3" xmlns="http://www.w3.org/2000/svg"><style type="text/css">.st0{fill:#FFFFFF;}</style><rect class="st0" width="1e3" height="1e3"/><rect x="10" y="10" width="980" height="980"/><rect class="st0" x="70" y="70" width="860" height="860"/><path d="m457.8 426.2c-3.8 12.1-8.3 23.1-13.5 32.8-5.2 10.1-10.4 18.2-15.6 24.4-5.2 6.6-9.2 10.4-12 11.4 14.2 13.2 26.3 29.1 36.4 47.8 10.1 19.1 15.1 39.5 15.1 61.4 0 19.1-4.3 38-13 56.7s-20.5 35.5-35.4 50.4c-15.3 15.3-32.2 27.2-51 35.9-18.7 8.7-37.6 13-56.7 13s-38-4.3-56.7-13-35.5-20.6-50.4-35.9c-15.3-14.9-27.2-31.7-35.9-50.4s-13-37.6-13-56.7c0-21.8 5-42.3 15.1-61.4 10.1-18.7 22.2-34.7 36.4-47.8-2.8-1-6.8-4.9-12-11.4-5.2-6.2-10.4-14.4-15.6-24.4-5.2-9.7-9.5-20.6-13-32.8-3.8-11.8-5.7-23.6-5.7-35.4 0-19.1 4.2-37.8 12.5-56.2 8.3-18 19.6-34.3 33.8-48.9 14.2-14.2 30.5-25.5 48.9-33.8 18-8 36.6-12 55.6-12 19.1 0 37.8 4 56.2 12 18 8.3 34.3 19.6 48.9 33.8 14.2 14.6 25.5 30.9 33.8 48.9 8 18.4 12 37.1 12 56.2 0 11.8-1.7 23.6-5.2 35.4zm-202.8 200.2c3.5 7.6 8.3 14.4 14.6 20.3 5.9 6.2 12.7 11.1 20.3 14.6 7.3 3.5 14.7 5.2 22.4 5.2 7.6 0 15.3-1.7 22.9-5.2 7.3-3.5 14-8.3 20.3-14.6 5.9-5.9 10.6-12.7 14-20.3 3.5-7.3 5.2-14.7 5.2-22.4 0-7.6-1.7-15.3-5.2-22.9-3.5-7.3-8.1-14-14-20.3-6.2-5.9-13-10.6-20.3-14-7.6-3.5-15.3-5.2-22.9-5.2s-15.1 1.7-22.4 5.2c-7.6 3.5-14.4 8.1-20.3 14-6.2 6.2-11.1 13-14.6 20.3-3.5 7.6-5.2 15.3-5.2 22.9s1.7 15.1 5.2 22.4zm97.8-276.2c-11.4-11.1-25-16.6-40.6-16.6s-28.9 5.5-40 16.6c-11.4 11.4-17.2 25-17.2 40.6s5.7 28.9 17.2 40c11.1 11.4 24.4 17.2 40 17.2s29.1-5.7 40.6-17.2c11.1-11.1 16.6-24.4 16.6-40s-5.5-29.1-16.6-40.6z"/><path d="m635.1 747c-18.7-8.7-35.5-20.6-50.4-35.9-15.3-14.9-27.2-31.7-35.9-50.4s-13-37.6-13-56.7v-208c0-19.1 4.3-38 13-56.7s20.6-35.7 35.9-51c14.9-14.9 31.7-26.7 50.4-35.4s37.6-13 56.7-13 38 4.3 56.7 13 35.7 20.5 51 35.4c14.9 15.3 26.7 32.2 35.4 51 8.7 18.7 13 37.6 13 56.7v208c0 19.1-4.3 38-13 56.7s-20.5 35.5-35.4 50.4c-15.3 15.3-32.2 27.2-51 35.9-18.7 8.7-37.6 13-56.7 13s-38-4.3-56.7-13zm79.6-85.8c7.3-3.5 14-8.3 20.3-14.6 5.9-5.9 10.6-12.7 14-20.3 3.5-7.3 5.2-14.7 5.2-22.4v-207.9c0-7.6-1.7-15.3-5.2-22.9-3.5-7.3-8.1-14-14-20.3-6.2-5.9-13-10.6-20.3-14-7.6-3.5-15.3-5.2-22.9-5.2s-15.1 1.7-22.4 5.2c-7.6 3.5-14.4 8.1-20.3 14-6.2 6.2-11.1 13-14.6 20.3-3.5 7.6-5.2 15.3-5.2 22.9v208c0 7.6 1.7 15.1 5.2 22.4 3.5 7.6 8.3 14.4 14.6 20.3 5.9 6.2 12.7 11.1 20.3 14.6 7.3 3.5 14.7 5.2 22.4 5.2 7.6-0.1 15.2-1.8 22.9-5.3z"/></svg>
