<?xml version="1.0" encoding="UTF-8"?>
<svg version="1.1" viewBox="0 0 500 350" xmlns="http://www.w3.org/2000/svg"><g transform="translate(0 -702.36)"><path transform="translate(0 702.36)" d="m0 0h500v350h-500z"/><path transform="matrix(.70711 .70711 -.70711 .70711 0 0)" d="m620.39 372.9h247.49v247.49h-247.49z" fill="#1a1a1a"/><g fill="#fff"><path d="m106.24 928.86h-20.001v-75.377c-7.3076 6.8331-15.92 11.887-25.837 15.161v-18.15c5.2197-1.7082 10.89-4.9468 17.011-9.7157 6.1212-4.7688 10.321-10.332 12.598-16.691h16.228z"/><path d="m170.02 824.09c10.107 1e-4 18.008 3.6064 23.702 10.819 6.7855 8.5414 10.178 22.706 10.178 42.493-7e-5 19.74-3.4166 33.928-10.25 42.564-5.6468 7.1178-13.524 10.677-23.631 10.677-10.155 0-18.34-3.9029-24.556-11.709-6.2162-7.8058-9.3242-21.721-9.3242-41.746-1e-5 -19.645 3.4165-33.785 10.25-42.422 5.6467-7.1176 13.524-10.677 23.631-10.677zm0 16.584c-2.4201 9e-5 -4.5791 0.77118-6.4772 2.3133-1.8981 1.5423-3.3691 4.3063-4.413 8.2922-1.3761 5.1723-2.0642 13.88-2.0642 26.122-2e-5 12.243 0.61685 20.653 1.8506 25.232 1.2337 4.5791 2.7878 7.6279 4.6621 9.1463 1.8743 1.5185 4.0215 2.2777 6.4416 2.2777 2.42 1e-5 4.579-0.77108 6.4772-2.3133 1.898-1.5422 3.369-4.3062 4.413-8.2922 1.376-5.1248 2.0641-13.808 2.0641-26.051-5e-5 -12.242-0.61692-20.653-1.8506-25.232-1.2338-4.579-2.7878-7.6396-4.6621-9.1819-1.8744-1.5421-4.0216-2.3132-6.4416-2.3133z"/><path d="m251.16 824.09c10.107 1e-4 18.008 3.6064 23.702 10.819 6.7855 8.5414 10.178 22.706 10.178 42.493-7e-5 19.74-3.4166 33.928-10.25 42.564-5.6468 7.1178-13.524 10.677-23.631 10.677-10.155 0-18.34-3.9029-24.556-11.709-6.2162-7.8058-9.3242-21.721-9.3242-41.746 0-19.645 3.4165-33.785 10.25-42.422 5.6467-7.1176 13.524-10.677 23.631-10.677zm0 16.584c-2.4201 9e-5 -4.5791 0.77118-6.4772 2.3133-1.8981 1.5423-3.3691 4.3063-4.413 8.2922-1.3761 5.1723-2.0642 13.88-2.0642 26.122-2e-5 12.243 0.61685 20.653 1.8506 25.232 1.2337 4.5791 2.7878 7.6279 4.6621 9.1463 1.8743 1.5185 4.0215 2.2777 6.4416 2.2777 2.42 1e-5 4.579-0.77108 6.4772-2.3133 1.898-1.5422 3.369-4.3062 4.413-8.2922 1.376-5.1248 2.0641-13.808 2.0641-26.051-5e-5 -12.242-0.61692-20.653-1.8506-25.232-1.2338-4.579-2.7878-7.6396-4.6621-9.1819-1.8744-1.5421-4.0216-2.3132-6.4416-2.3133z"/></g><path d="m385.74 713.47h96.261v327.78h-96.261z" fill="#1a1a1a"/><path d="m408.31 724.19h51.124v306.35h-51.124z" fill="#333"/></g></svg>
