<?xml version="1.0" encoding="UTF-8"?>
<svg version="1.1" viewBox="0 0 64 64" xmlns="http://www.w3.org/2000/svg"><g style="font-feature-settings:normal;font-variant-caps:normal;font-variant-ligatures:normal;font-variant-numeric:normal" aria-label="60"><path transform="translate(-107.73 -4.842)" d="m119.73 68.842h40v-46.546l-20-17.454-20 17.454z"/><path transform="translate(-107.73 -4.842)" d="m121.73 66.842h36v-43.385l-18-16.23-18 16.186z" fill="#fff"/><g style="font-feature-settings:normal;font-variant-caps:normal;font-variant-ligatures:normal;font-variant-numeric:normal"><path transform="translate(-107.73 -4.842)" d="M139.732 36.234q-1.299 0-1.781.075-.483.074-.891.26V31.67h12.172v-6.828h-19v17.033l6.828 2.227q.037-.334.594-.668t2.078-.334q.853 0 1.67.37.816.372 1.484 1.003.631.668 1.002 1.484.371.854.408 1.67v3.822q0 .854-.408 1.633-.37.854-1.002 1.484-.668.668-1.484 1.04-.854.37-1.67.408-.854 0-1.633-.408-.853-.372-1.484-1.04-.668-.63-1.076-1.484-.372-.816-.372-1.633h-6.828q0 2.078.928 4.12.965 2.04 2.635 3.71 1.633 1.67 3.674 2.598 2.04.965 4.156.965 2.078 0 4.119-.965t3.748-2.598q1.633-1.632 2.56-3.71.965-2.042.965-4.12v-3.822q0-2.078-.964-4.12-.965-2.04-2.56-3.747-1.67-1.633-3.749-2.56-2.041-.966-4.12-.966z" stroke-width="17.812" aria-label="5"/></g></g></svg>
