<?xml version="1.0" encoding="UTF-8"?>
<svg version="1.1" viewBox="0 0 64 64" xmlns="http://www.w3.org/2000/svg"><path transform="translate(-107.73 -4.842)" d="m107.73 4.842h64v64h-64z"/><path transform="translate(-107.73 -4.842)" d="m108.73 5.842h62v62h-62z" fill="#fff" style="paint-order:markers stroke fill"/><g stroke-width="2.5" style="font-feature-settings:normal;font-variant-caps:normal;font-variant-ligatures:normal;font-variant-numeric:normal"><path transform="translate(-100.74 .658)" d="M118.748 13.436q.449 0 .878.214.43.196.782.528.332.351.527.781.195.45.195.879v8.008q0 .449-.195.86-.195.448-.527.78-.352.352-.782.547-.449.196-.878.215h-2.403V13.436zm0-3.594h-6.016v20h6.016q1.093 0 2.167-.508 1.075-.508 1.973-1.367.86-.86 1.348-1.953.508-1.074.508-2.168v-8.008q0-1.094-.508-2.168t-1.348-1.973q-.879-.859-1.973-1.347-1.074-.508-2.167-.508" aria-label="D"/><path transform="translate(-100.74 .658)" d="M118.748 36.436q.449 0 .878.214.43.196.782.528.332.351.527.781.195.45.195.879v8.008q0 .449-.195.86-.195.448-.527.78-.352.352-.782.547-.449.196-.878.215h-2.403V36.436zm0-3.594h-6.016v20h6.016q1.093 0 2.167-.508 1.075-.508 1.973-1.367.86-.86 1.348-1.953.508-1.074.508-2.168v-8.008q0-1.094-.508-2.168t-1.348-1.973q-.879-.859-1.973-1.347-1.074-.508-2.167-.508" aria-label="D"/></g><path transform="translate(-107.73 -4.842)" d="M163.732 36.838c0-.024-.024-13.176-3-17.992-1.96-3.17-6.04-.83-8-4-.526-.85-.145-2.384-1-3-1.352-.975-5-1.667-5 0v15c0 1.666 3.582.876 5 0 .634-.392.586-1.38 1-2 2-3 3-1 3-1v25.992s-1 2-3-1c-.414-.62-.366-1.608-1-2-1.418-.876-5-1.667-5 0v15c0 1.667 3.648.974 5 0 .855-.616.474-2.15 1-3 1.96-3.17 6.04-.83 8-4 2.976-4.816 3-17.968 3-17.992z"/></svg>
