<?xml version="1.0" encoding="UTF-8" standalone="no"?>
<svg
   viewBox="0 0 155 260"
   version="1.1"
   id="svg4"
   sodipodi:docname="Plaque de reconnaissance différée avec VAT.svg"
   inkscape:version="1.4.3 (0d15f75, 2025-12-25)"
   width="155"
   height="260"
   xmlns:inkscape="http://www.inkscape.org/namespaces/inkscape"
   xmlns:sodipodi="http://sodipodi.sourceforge.net/DTD/sodipodi-0.dtd"
   xmlns="http://www.w3.org/2000/svg"
   xmlns:svg="http://www.w3.org/2000/svg">
  <defs
     id="defs4" />
  <sodipodi:namedview
     id="namedview4"
     pagecolor="#505050"
     bordercolor="#eeeeee"
     borderopacity="1"
     inkscape:showpageshadow="0"
     inkscape:pageopacity="0"
     inkscape:pagecheckerboard="0"
     inkscape:deskcolor="#d1d1d1"
     inkscape:zoom="3.1901394"
     inkscape:cx="55.326735"
     inkscape:cy="133.37975"
     inkscape:window-width="2560"
     inkscape:window-height="1494"
     inkscape:window-x="2549"
     inkscape:window-y="-11"
     inkscape:window-maximized="1"
     inkscape:current-layer="layer1" />
  <g
     inkscape:groupmode="layer"
     id="layer1"
     inkscape:label="Plate">
    <path
       fill="#ffffff"
       d="M 0.49998667,0.49998681 H 154.50001 V 259.50001 H 0.49998667 Z"
       id="path1"
       style="stroke:#000000;stroke-width:0.999974;stroke-dasharray:none"
       inkscape:label="Plate" />
    <path
       stroke="#000000"
       stroke-width="0.102"
       d="m 99.27,207.368 v 13.36 L 10.05,212.48 v 29.458 l 89.22,-7.85 v 13.361 h 8.543 l 37.08,-20.04 -37.08,-20.041 z"
       id="path2"
       inkscape:label="Arrow" />
    <path
       stroke="#000000"
       stroke-width="0.902"
       d="m 132.516,35.97 c -2.24,-5.633 -7.419,-12.117 -11.479,-13.97 -1.345,-0.719 -5.497,-1.471 -9.184,-1.782 -6.178,-0.52 -6.86,-0.778 -7.199,-2.722 -0.331,-2.044 -0.821,-2.186 -5.256,-1.955 -7.457,0.381 -7.582,0.673 -5.944,14.722 0.745,6.717 1.813,14.367 2.31,16.828 0.937,4.414 1.12,4.63 4.624,4.724 5.107,0.127 7.832,-1.256 8.065,-4.06 0.25,-3.003 1.846,-4.078 6.704,-4.577 4.56,-0.523 6.627,1.163 6.301,5.067 -0.192,2.302 0.6,56.604 -0.498,60.141 -0.408,1.276 -1.945,2.86 -3.415,3.644 -3.472,1.926 -7.125,0.005 -8.27,-4.325 -0.596,-2.47 -1.343,-3.137 -3.536,-3.321 -5.082,-0.428 -9.068,0.446 -9.202,2.048 -0.075,0.901 -1.006,2.436 -2.094,3.453 -2.069,1.943 -6.724,13.245 -8.546,20.653 -0.807,3.662 -0.658,4.279 1.667,6.49 1.494,1.336 3.877,2.847 5.347,3.273 1.47,0.426 2.798,1.345 3.03,2.17 0.788,2.587 11.26,2.158 12.382,-0.47 1.596,-3.495 6.257,-7.639 10.617,-9.39 12.874,-5.166 18.8,-18.478 20.64,-46.55 2.571,-17.154 -5.902,-47.171 -7.064,-50.092 z"
       id="path3"
       inkscape:label="Handset" />
    <g
       id="g3"
       inkscape:label="VAT">
      <circle
         cx="42.5"
         cy="177.5"
         r="22.5"
         id="circle2"
         inkscape:label="Parasol" />
      <circle
         cx="42.5"
         cy="177.5"
         r="10"
         fill="#def9f9"
         id="circle3"
         inkscape:label="Light" />
    </g>
    <path
       d="m 42.5,65.415 q -2.46,0 -3.375,0.14 -0.914,0.14 -1.687,0.492 v -9.28 H 60.5 V 43.828 h -36 v 32.273 l 12.938,4.219 q 0.07,-0.633 1.124,-1.266 1.054,-0.633 3.938,-0.633 1.617,0 3.164,0.704 1.547,0.703 2.813,1.898 1.195,1.266 1.898,2.812 0.703,1.618 0.773,3.165 v 7.242 q 0,1.617 -0.773,3.093 -0.703,1.618 -1.898,2.813 -1.266,1.266 -2.813,1.969 -1.617,0.703 -3.164,0.773 -1.617,0 -3.094,-0.773 -1.617,-0.703 -2.812,-1.969 -1.266,-1.195 -2.04,-2.813 -0.702,-1.546 -0.702,-3.093 H 20.914 q 0,3.937 1.758,7.804 1.828,3.868 4.992,7.032 3.094,3.164 6.961,4.922 3.867,1.828 7.875,1.828 3.938,0 7.805,-1.828 3.867,-1.828 7.101,-4.922 3.094,-3.094 4.852,-7.032 1.828,-3.867 1.828,-7.804 V 87 q 0,-3.938 -1.828,-7.805 Q 60.43,75.328 57.406,72.093 54.242,69 50.305,67.242 46.438,65.414 42.5,65.414"
       aria-label="5"
       id="path4"
       inkscape:label="Delay" />
  </g>
</svg>
