<?xml version="1.0" encoding="UTF-8"?><svg xmlns="http://www.w3.org/2000/svg" viewBox="0 0 500 790"><path fill="#999" d="M0 0h500v690H0z"/><path d="M10 30h480v660H10z"/><path fill="#484c63" d="M70 100h360v520H70z"/><path fill="#eeab5f" d="M214.294 591.055h-78.71l.634-49.83h78.076q41.578 0 67.603-15.869 26.025-16.186 38.403-47.607 12.378-31.738 12.378-78.394v-79.028q0-36.816-6.982-63.476t-20.947-43.8-35.23-25.39q-21.265-8.57-49.83-8.57h-85.692v-50.146h85.693q39.038 0 70.459 12.378 31.42 12.06 53.955 36.5 22.534 24.12 34.277 59.985 12.06 35.864 12.06 83.154v78.393q0 47.29-12.06 83.155-11.743 35.864-34.594 59.985-22.852 24.121-55.542 36.5-32.373 12.06-73.95 12.06m-46.337-462.11v462.11h-58.399v-462.11Z" aria-label="D"/><path fill="#999" stroke="#999" stroke-width="2.308" d="M358.846 80a3.846 3.846 0 0 1-3.794 3.846 3.846 3.846 0 0 1-3.897-3.742 3.846 3.846 0 0 1 3.689-3.947 3.846 3.846 0 0 1 3.997 3.635M158.846 80a3.846 3.846 0 0 1-3.794 3.846 3.846 3.846 0 0 1-3.897-3.742 3.846 3.846 0 0 1 3.689-3.947 3.846 3.846 0 0 1 3.997 3.635M358.846 640a3.846 3.846 0 0 1-3.794 3.846 3.846 3.846 0 0 1-3.897-3.742 3.846 3.846 0 0 1 3.689-3.947 3.846 3.846 0 0 1 3.997 3.635M158.846 640a3.846 3.846 0 0 1-3.794 3.846 3.846 3.846 0 0 1-3.897-3.742 3.846 3.846 0 0 1 3.689-3.947 3.846 3.846 0 0 1 3.997 3.635M53.846 360a3.846 3.846 0 0 1-3.794 3.846 3.846 3.846 0 0 1-3.897-3.742 3.846 3.846 0 0 1 3.689-3.947 3.846 3.846 0 0 1 3.997 3.635M53.846 550a3.846 3.846 0 0 1-3.794 3.846 3.846 3.846 0 0 1-3.897-3.742 3.846 3.846 0 0 1 3.689-3.947 3.846 3.846 0 0 1 3.997 3.635M53.846 170a3.846 3.846 0 0 1-3.794 3.846 3.846 3.846 0 0 1-3.897-3.742 3.846 3.846 0 0 1 3.689-3.947 3.846 3.846 0 0 1 3.997 3.635M453.846 360a3.846 3.846 0 0 1-3.794 3.846 3.846 3.846 0 0 1-3.897-3.742 3.846 3.846 0 0 1 3.689-3.947 3.846 3.846 0 0 1 3.997 3.635M453.846 550a3.846 3.846 0 0 1-3.794 3.846 3.846 3.846 0 0 1-3.897-3.742 3.846 3.846 0 0 1 3.689-3.947 3.846 3.846 0 0 1 3.997 3.635M453.846 170a3.846 3.846 0 0 1-3.794 3.846 3.846 3.846 0 0 1-3.897-3.742 3.846 3.846 0 0 1 3.689-3.947 3.846 3.846 0 0 1 3.997 3.635"/><path fill="#999" stroke="#666" stroke-width="2.198" d="M1.099 691.099h497.802v97.802H1.099z"/><path fill="#333" d="M455 765a5 5 0 0 1-4.932 5 5 5 0 0 1-5.066-4.864 5 5 0 0 1 4.795-5.132 5 5 0 0 1 5.196 4.725M55 765a5 5 0 0 1-4.932 5 5 5 0 0 1-5.066-4.864 5 5 0 0 1 4.795-5.132 5 5 0 0 1 5.196 4.725M455 715a5 5 0 0 1-4.932 5 5 5 0 0 1-5.066-4.864 5 5 0 0 1 4.795-5.132 5 5 0 0 1 5.196 4.725M55 715a5 5 0 0 1-4.932 5 5 5 0 0 1-5.066-4.864 5 5 0 0 1 4.795-5.132 5 5 0 0 1 5.196 4.725"/></svg>