<?xml version="1.0" encoding="UTF-8"?><svg xmlns="http://www.w3.org/2000/svg" viewBox="0 0 920 790"><path fill="#999" d="M0 0h920v690H0z"/><path d="M10 30h900v660H10z"/><path fill="#484c63" d="M70 100h360v520H70zm420 0h360v520H490z"/><path fill="#999" stroke="#999" stroke-width="2.308" d="M53.846 340a3.846 3.846 0 0 1-3.794 3.846 3.846 3.846 0 0 1-3.897-3.742 3.846 3.846 0 0 1 3.689-3.947 3.846 3.846 0 0 1 3.997 3.635M53.846 550a3.846 3.846 0 0 1-3.794 3.846 3.846 3.846 0 0 1-3.897-3.742 3.846 3.846 0 0 1 3.689-3.947 3.846 3.846 0 0 1 3.997 3.635M53.846 170a3.846 3.846 0 0 1-3.794 3.846 3.846 3.846 0 0 1-3.897-3.742 3.846 3.846 0 0 1 3.689-3.947 3.846 3.846 0 0 1 3.997 3.635M873.846 380a3.846 3.846 0 0 1-3.794 3.846 3.846 3.846 0 0 1-3.897-3.742 3.846 3.846 0 0 1 3.689-3.947 3.846 3.846 0 0 1 3.996 3.635M873.846 550a3.846 3.846 0 0 1-3.794 3.846 3.846 3.846 0 0 1-3.897-3.742 3.846 3.846 0 0 1 3.689-3.947 3.846 3.846 0 0 1 3.996 3.635M873.846 170a3.846 3.846 0 0 1-3.794 3.846 3.846 3.846 0 0 1-3.897-3.742 3.846 3.846 0 0 1 3.689-3.947 3.846 3.846 0 0 1 3.997 3.635M463.846 360a3.846 3.846 0 0 1-3.794 3.846 3.846 3.846 0 0 1-3.897-3.742 3.846 3.846 0 0 1 3.689-3.947 3.846 3.846 0 0 1 3.997 3.635M463.846 550a3.846 3.846 0 0 1-3.794 3.846 3.846 3.846 0 0 1-3.897-3.742 3.846 3.846 0 0 1 3.689-3.947 3.846 3.846 0 0 1 3.997 3.635M463.846 170a3.846 3.846 0 0 1-3.794 3.846 3.846 3.846 0 0 1-3.897-3.742 3.846 3.846 0 0 1 3.689-3.947 3.846 3.846 0 0 1 3.997 3.635M358.846 80a3.846 3.846 0 0 1-3.794 3.846 3.846 3.846 0 0 1-3.897-3.742 3.846 3.846 0 0 1 3.689-3.947 3.846 3.846 0 0 1 3.997 3.635M158.846 80a3.846 3.846 0 0 1-3.794 3.846 3.846 3.846 0 0 1-3.897-3.742 3.846 3.846 0 0 1 3.689-3.947 3.846 3.846 0 0 1 3.997 3.635M778.846 80a3.846 3.846 0 0 1-3.794 3.846 3.846 3.846 0 0 1-3.897-3.742 3.846 3.846 0 0 1 3.689-3.947 3.846 3.846 0 0 1 3.996 3.635M578.846 80a3.846 3.846 0 0 1-3.794 3.846 3.846 3.846 0 0 1-3.897-3.742 3.846 3.846 0 0 1 3.689-3.947 3.846 3.846 0 0 1 3.997 3.635M358.846 640a3.846 3.846 0 0 1-3.794 3.846 3.846 3.846 0 0 1-3.897-3.742 3.846 3.846 0 0 1 3.689-3.947 3.846 3.846 0 0 1 3.997 3.635M158.846 640a3.846 3.846 0 0 1-3.794 3.846 3.846 3.846 0 0 1-3.897-3.742 3.846 3.846 0 0 1 3.689-3.947 3.846 3.846 0 0 1 3.997 3.635m620.005.208a3.846 3.846 0 0 1-3.794 3.846 3.846 3.846 0 0 1-3.897-3.742 3.846 3.846 0 0 1 3.689-3.947 3.846 3.846 0 0 1 3.996 3.635M578.846 640a3.846 3.846 0 0 1-3.794 3.846 3.846 3.846 0 0 1-3.897-3.742 3.846 3.846 0 0 1 3.689-3.947 3.846 3.846 0 0 1 3.997 3.635"/><path fill="#999" stroke="#666" stroke-width="2.972" d="M1.486 691.486h917.028v97.028H1.486z"/><path fill="#333" d="M75 715a5 5 0 0 1-4.932 5 5 5 0 0 1-5.066-4.864 5 5 0 0 1 4.795-5.132 5 5 0 0 1 5.196 4.725M75 765a5 5 0 0 1-4.932 5 5 5 0 0 1-5.066-4.864 5 5 0 0 1 4.795-5.132 5 5 0 0 1 5.196 4.725M855 715a5 5 0 0 1-4.932 5 5 5 0 0 1-5.066-4.864 5 5 0 0 1 4.795-5.132 5 5 0 0 1 5.196 4.725M855 765a5 5 0 0 1-4.932 5 5 5 0 0 1-5.066-4.864 5 5 0 0 1 4.795-5.132 5 5 0 0 1 5.196 4.725"/></svg>