<?xml version="1.0" encoding="UTF-8"?><svg xmlns="http://www.w3.org/2000/svg" viewBox="0 0 500 790"><path fill="#999" d="M0 0h500v690H0z"/><path d="M10 30h480v660H10z"/><path fill="#484c63" d="M70 100h360v520H70z"/><path fill="#eeab5f" d="M399.963 360.952v172.339q-7.617 10.156-23.169 25.39-15.234 15.235-42.846 26.978-27.613 11.743-72.364 11.743-35.864 0-65.698-12.06-29.516-12.06-51.098-36.182-21.265-24.438-33.008-60.62-11.743-36.499-11.743-85.376V316.52q0-48.56 9.838-85.059 9.84-36.5 29.2-60.62 19.677-24.121 48.56-36.182 29.199-12.06 67.92-12.06 44.75 0 76.171 16.821t48.56 48.56q17.456 31.738 19.677 76.171h-58.398q-2.222-28.564-12.06-48.877-9.84-20.63-27.93-31.42-18.091-11.109-46.02-11.109-26.661 0-45.07 8.887-18.407 8.887-30.15 26.66-11.426 17.773-16.822 44.751-5.078 26.978-5.078 62.842v87.28q0 36.816 7.3 64.111t20.63 45.069q13.647 17.773 32.69 26.66 19.043 8.57 42.847 8.57 26.977 0 42.53-5.714 15.55-5.713 23.803-13.012 8.57-7.3 13.647-11.744v-106.64h-84.74v-49.512z" aria-label="G" /><path fill="#999" stroke="#999" stroke-width="2.308" d="M358.846 80a3.846 3.846 0 0 1-3.794 3.846 3.846 3.846 0 0 1-3.897-3.742 3.846 3.846 0 0 1 3.689-3.947 3.846 3.846 0 0 1 3.997 3.635M158.846 80a3.846 3.846 0 0 1-3.794 3.846 3.846 3.846 0 0 1-3.897-3.742 3.846 3.846 0 0 1 3.689-3.947 3.846 3.846 0 0 1 3.997 3.635M358.846 640a3.846 3.846 0 0 1-3.794 3.846 3.846 3.846 0 0 1-3.897-3.742 3.846 3.846 0 0 1 3.689-3.947 3.846 3.846 0 0 1 3.997 3.635M158.846 640a3.846 3.846 0 0 1-3.794 3.846 3.846 3.846 0 0 1-3.897-3.742 3.846 3.846 0 0 1 3.689-3.947 3.846 3.846 0 0 1 3.997 3.635M53.846 360a3.846 3.846 0 0 1-3.794 3.846 3.846 3.846 0 0 1-3.897-3.742 3.846 3.846 0 0 1 3.689-3.947 3.846 3.846 0 0 1 3.997 3.635M53.846 550a3.846 3.846 0 0 1-3.794 3.846 3.846 3.846 0 0 1-3.897-3.742 3.846 3.846 0 0 1 3.689-3.947 3.846 3.846 0 0 1 3.997 3.635M53.846 170a3.846 3.846 0 0 1-3.794 3.846 3.846 3.846 0 0 1-3.897-3.742 3.846 3.846 0 0 1 3.689-3.947 3.846 3.846 0 0 1 3.997 3.635M453.846 360a3.846 3.846 0 0 1-3.794 3.846 3.846 3.846 0 0 1-3.897-3.742 3.846 3.846 0 0 1 3.689-3.947 3.846 3.846 0 0 1 3.997 3.635M453.846 550a3.846 3.846 0 0 1-3.794 3.846 3.846 3.846 0 0 1-3.897-3.742 3.846 3.846 0 0 1 3.689-3.947 3.846 3.846 0 0 1 3.997 3.635M453.846 170a3.846 3.846 0 0 1-3.794 3.846 3.846 3.846 0 0 1-3.897-3.742 3.846 3.846 0 0 1 3.689-3.947 3.846 3.846 0 0 1 3.997 3.635"/><path fill="#999" stroke="#666" stroke-width="2.198" d="M1.099 691.099h497.802v97.802H1.099z"/><path fill="#333" d="M455 764.995a5 5 0 0 1-4.932 5 5 5 0 0 1-5.066-4.864 5 5 0 0 1 4.795-5.132 5 5 0 0 1 5.196 4.725M55 764.995a5 5 0 0 1-4.932 5 5 5 0 0 1-5.066-4.864 5 5 0 0 1 4.795-5.132 5 5 0 0 1 5.196 4.725M455 715a5 5 0 0 1-4.932 5 5 5 0 0 1-5.066-4.864 5 5 0 0 1 4.795-5.132 5 5 0 0 1 5.196 4.725M55 715a5 5 0 0 1-4.932 5 5 5 0 0 1-5.066-4.864 5 5 0 0 1 4.795-5.132 5 5 0 0 1 5.196 4.725"/></svg>