<?xml version="1.0" encoding="UTF-8" standalone="no"?>
<!-- Created with Inkscape (http://www.inkscape.org/) -->

<svg
   width="920"
   height="790"
   viewBox="0 0 920 790"
   version="1.1"
   id="svg1"
   inkscape:version="1.4.3 (0d15f75, 2025-12-25)"
   sodipodi:docname="TIDD_G.svg"
   xmlns:inkscape="http://www.inkscape.org/namespaces/inkscape"
   xmlns:sodipodi="http://sodipodi.sourceforge.net/DTD/sodipodi-0.dtd"
   xmlns="http://www.w3.org/2000/svg"
   xmlns:svg="http://www.w3.org/2000/svg">
  <sodipodi:namedview
     id="namedview1"
     pagecolor="#505050"
     bordercolor="#eeeeee"
     borderopacity="1"
     inkscape:showpageshadow="0"
     inkscape:pageopacity="0"
     inkscape:pagecheckerboard="0"
     inkscape:deskcolor="#d1d1d1"
     inkscape:document-units="px"
     inkscape:zoom="1.482851"
     inkscape:cx="317.29419"
     inkscape:cy="353.71052"
     inkscape:window-width="2560"
     inkscape:window-height="1494"
     inkscape:window-x="2549"
     inkscape:window-y="-11"
     inkscape:window-maximized="1"
     inkscape:current-layer="layer1" />
  <defs
     id="defs1" />
  <g
     inkscape:label="Signal"
     inkscape:groupmode="layer"
     id="layer1"
     transform="translate(0,690)">
    <rect
       style="fill:#999999;stroke:none;stroke-width:2.9992"
       id="rect3"
       width="920"
       height="690"
       x="0"
       y="-690"
       inkscape:label="Box" />
    <rect
       style="fill:#000000;stroke:none;stroke-width:3.27336;stroke-dasharray:none"
       id="rect2"
       width="900"
       height="660"
       x="10"
       y="-660"
       inkscape:label="Front" />
    <g
       id="g1"
       inkscape:label="Displays">
      <rect
         style="fill:#484c63;fill-opacity:1;stroke:none;stroke-width:1.3691"
         id="rect5-1"
         width="360"
         height="520"
         x="70"
         y="-590"
         inkscape:label="Left" />
      <rect
         style="fill:#484c63;fill-opacity:1;stroke:none;stroke-width:1.3691"
         id="rect5-1-9"
         width="360"
         height="520"
         x="490"
         y="-590"
         inkscape:label="Right" />
    </g>
  </g>
  <g
     inkscape:groupmode="layer"
     id="layer2"
     inkscape:label="Screws">
    <path
       style="fill:#999999;stroke:#999999;stroke-width:2.3077"
       id="path5-2-4"
       sodipodi:type="arc"
       sodipodi:cx="50.000015"
       sodipodi:cy="-350"
       sodipodi:rx="3.8461571"
       sodipodi:ry="3.846144"
       sodipodi:start="0"
       sodipodi:end="6.2289612"
       sodipodi:open="true"
       sodipodi:arc-type="arc"
       d="m 53.846172,-350 a 3.8461571,3.846144 0 0 1 -3.79402,3.84579 3.8461571,3.846144 0 0 1 -3.89688,-3.74153 3.8461571,3.846144 0 0 1 3.688371,-3.94722 3.8461571,3.846144 0 0 1 3.996876,3.63451"
       transform="translate(0,690)"
       inkscape:label="L2" />
    <path
       style="fill:#999999;stroke:#999999;stroke-width:2.3077"
       id="path5-2-4-9"
       sodipodi:type="arc"
       sodipodi:cx="50.000015"
       sodipodi:cy="-140"
       sodipodi:rx="3.8461571"
       sodipodi:ry="3.846144"
       sodipodi:start="0"
       sodipodi:end="6.2289612"
       sodipodi:open="true"
       sodipodi:arc-type="arc"
       d="m 53.846172,-140 a 3.8461571,3.846144 0 0 1 -3.79402,3.84579 3.8461571,3.846144 0 0 1 -3.89688,-3.74153 3.8461571,3.846144 0 0 1 3.688371,-3.94722 3.8461571,3.846144 0 0 1 3.996876,3.63451"
       transform="translate(0,690)"
       inkscape:label="L3" />
    <path
       style="fill:#999999;stroke:#999999;stroke-width:2.30773"
       id="path5-2-3"
       sodipodi:type="arc"
       sodipodi:cx="50.00013"
       sodipodi:cy="-520"
       sodipodi:rx="3.8462558"
       sodipodi:ry="3.8461506"
       sodipodi:start="0"
       sodipodi:end="6.2289612"
       sodipodi:open="true"
       sodipodi:arc-type="arc"
       d="m 53.846385,-520 a 3.8462558,3.8461506 0 0 1 -3.794117,3.8458 3.8462558,3.8461506 0 0 1 -3.896981,-3.74154 3.8462558,3.8461506 0 0 1 3.688466,-3.94723 3.8462558,3.8461506 0 0 1 3.996979,3.63452"
       transform="translate(0,690)"
       inkscape:label="L1" />
    <path
       style="fill:#999999;stroke:#999999;stroke-width:2.3077"
       id="path5-2-4-7"
       sodipodi:type="arc"
       sodipodi:cx="870"
       sodipodi:cy="380"
       sodipodi:rx="3.8461571"
       sodipodi:ry="3.846144"
       sodipodi:start="0"
       sodipodi:end="6.2289612"
       sodipodi:open="true"
       sodipodi:arc-type="arc"
       d="m 873.84616,380 a 3.8461571,3.846144 0 0 1 -3.79402,3.84579 3.8461571,3.846144 0 0 1 -3.89688,-3.74153 3.8461571,3.846144 0 0 1 3.68837,-3.94722 3.8461571,3.846144 0 0 1 3.99687,3.63451"
       inkscape:label="R2" />
    <path
       style="fill:#999999;stroke:#999999;stroke-width:2.3077"
       id="path5-2-4-9-0"
       sodipodi:type="arc"
       sodipodi:cx="870"
       sodipodi:cy="550"
       sodipodi:rx="3.8461571"
       sodipodi:ry="3.846144"
       sodipodi:start="0"
       sodipodi:end="6.2289612"
       sodipodi:open="true"
       sodipodi:arc-type="arc"
       d="m 873.84616,550 a 3.8461571,3.846144 0 0 1 -3.79402,3.84579 3.8461571,3.846144 0 0 1 -3.89688,-3.74153 3.8461571,3.846144 0 0 1 3.68837,-3.94722 3.8461571,3.846144 0 0 1 3.99687,3.63451"
       inkscape:label="R3" />
    <path
       style="fill:#999999;stroke:#999999;stroke-width:2.30773"
       id="path5-2-3-8"
       sodipodi:type="arc"
       sodipodi:cx="870.00012"
       sodipodi:cy="170"
       sodipodi:rx="3.8462558"
       sodipodi:ry="3.8461506"
       sodipodi:start="0"
       sodipodi:end="6.2289612"
       sodipodi:open="true"
       sodipodi:arc-type="arc"
       d="m 873.84638,170 a 3.8462558,3.8461506 0 0 1 -3.79412,3.8458 3.8462558,3.8461506 0 0 1 -3.89698,-3.74154 3.8462558,3.8461506 0 0 1 3.68847,-3.94723 3.8462558,3.8461506 0 0 1 3.99697,3.63452"
       inkscape:label="R1" />
    <path
       style="fill:#999999;stroke:#999999;stroke-width:2.3077"
       id="path5-2-4-3"
       sodipodi:type="arc"
       sodipodi:cx="460"
       sodipodi:cy="360"
       sodipodi:rx="3.8461571"
       sodipodi:ry="3.846144"
       sodipodi:start="0"
       sodipodi:end="6.2289612"
       sodipodi:open="true"
       sodipodi:arc-type="arc"
       d="m 463.84616,360 a 3.8461571,3.846144 0 0 1 -3.79402,3.84579 3.8461571,3.846144 0 0 1 -3.89688,-3.74153 3.8461571,3.846144 0 0 1 3.68837,-3.94722 3.8461571,3.846144 0 0 1 3.99687,3.63451"
       inkscape:label="C3" />
    <path
       style="fill:#999999;stroke:#999999;stroke-width:2.3077"
       id="path5-2-4-9-1"
       sodipodi:type="arc"
       sodipodi:cx="460"
       sodipodi:cy="550"
       sodipodi:rx="3.8461571"
       sodipodi:ry="3.846144"
       sodipodi:start="0"
       sodipodi:end="6.2289612"
       sodipodi:open="true"
       sodipodi:arc-type="arc"
       d="m 463.84616,550 a 3.8461571,3.846144 0 0 1 -3.79402,3.84579 3.8461571,3.846144 0 0 1 -3.89688,-3.74153 3.8461571,3.846144 0 0 1 3.68837,-3.94722 3.8461571,3.846144 0 0 1 3.99687,3.63451"
       inkscape:label="C2" />
    <path
       style="fill:#999999;stroke:#999999;stroke-width:2.30773"
       id="path5-2-3-5"
       sodipodi:type="arc"
       sodipodi:cx="460.00012"
       sodipodi:cy="170"
       sodipodi:rx="3.8462558"
       sodipodi:ry="3.8461506"
       sodipodi:start="0"
       sodipodi:end="6.2289612"
       sodipodi:open="true"
       sodipodi:arc-type="arc"
       d="m 463.84638,170 a 3.8462558,3.8461506 0 0 1 -3.79412,3.8458 3.8462558,3.8461506 0 0 1 -3.89698,-3.74154 3.8462558,3.8461506 0 0 1 3.68847,-3.94723 3.8462558,3.8461506 0 0 1 3.99697,3.63452"
       inkscape:label="C1" />
    <path
       style="fill:#999999;stroke:#999999;stroke-width:2.3077"
       id="path5-2-17"
       sodipodi:type="arc"
       sodipodi:cx="355"
       sodipodi:cy="-610"
       sodipodi:rx="3.8461571"
       sodipodi:ry="3.846144"
       sodipodi:start="0"
       sodipodi:end="6.2289612"
       sodipodi:open="true"
       sodipodi:arc-type="arc"
       d="m 358.84616,-610 a 3.8461571,3.846144 0 0 1 -3.79402,3.84579 3.8461571,3.846144 0 0 1 -3.89688,-3.74153 3.8461571,3.846144 0 0 1 3.68837,-3.94722 3.8461571,3.846144 0 0 1 3.99687,3.63451"
       transform="translate(0,690)"
       inkscape:label="T2" />
    <path
       style="fill:#999999;stroke:#999999;stroke-width:2.3077"
       id="path5-2-2"
       sodipodi:type="arc"
       sodipodi:cx="155.00002"
       sodipodi:cy="-610"
       sodipodi:rx="3.846158"
       sodipodi:ry="3.846144"
       sodipodi:start="0"
       sodipodi:end="6.2289612"
       sodipodi:open="true"
       sodipodi:arc-type="arc"
       d="m 158.84617,-610 a 3.846158,3.846144 0 0 1 -3.79402,3.84579 3.846158,3.846144 0 0 1 -3.89688,-3.74153 3.846158,3.846144 0 0 1 3.68837,-3.94722 3.846158,3.846144 0 0 1 3.99688,3.63451"
       transform="translate(0,690)"
       inkscape:label="T1" />
    <path
       style="fill:#999999;stroke:#999999;stroke-width:2.3077"
       id="path5-2-17-7"
       sodipodi:type="arc"
       sodipodi:cx="775"
       sodipodi:cy="-610"
       sodipodi:rx="3.8461571"
       sodipodi:ry="3.846144"
       sodipodi:start="0"
       sodipodi:end="6.2289612"
       sodipodi:open="true"
       sodipodi:arc-type="arc"
       d="m 778.84616,-610 a 3.8461571,3.846144 0 0 1 -3.79402,3.84579 3.8461571,3.846144 0 0 1 -3.89688,-3.74153 3.8461571,3.846144 0 0 1 3.68837,-3.94722 3.8461571,3.846144 0 0 1 3.99687,3.63451"
       transform="translate(0,690)"
       inkscape:label="T4" />
    <path
       style="fill:#999999;stroke:#999999;stroke-width:2.3077"
       id="path5-2-2-6"
       sodipodi:type="arc"
       sodipodi:cx="575"
       sodipodi:cy="-610"
       sodipodi:rx="3.846158"
       sodipodi:ry="3.846144"
       sodipodi:start="0"
       sodipodi:end="6.2289612"
       sodipodi:open="true"
       sodipodi:arc-type="arc"
       d="m 578.84616,-610 a 3.846158,3.846144 0 0 1 -3.79402,3.84579 3.846158,3.846144 0 0 1 -3.89688,-3.74153 3.846158,3.846144 0 0 1 3.68837,-3.94722 3.846158,3.846144 0 0 1 3.99688,3.63451"
       transform="translate(0,690)"
       inkscape:label="T3" />
    <path
       style="fill:#999999;stroke:#999999;stroke-width:2.3077"
       id="path5-2-17-1"
       sodipodi:type="arc"
       sodipodi:cx="355"
       sodipodi:cy="-49.999992"
       sodipodi:rx="3.8461571"
       sodipodi:ry="3.846144"
       sodipodi:start="0"
       sodipodi:end="6.2289612"
       sodipodi:open="true"
       sodipodi:arc-type="arc"
       d="m 358.84616,-49.999992 a 3.8461571,3.846144 0 0 1 -3.79402,3.84579 3.8461571,3.846144 0 0 1 -3.89688,-3.741526 3.8461571,3.846144 0 0 1 3.68837,-3.947228 3.8461571,3.846144 0 0 1 3.99687,3.634512"
       transform="translate(0,690)"
       inkscape:label="B2" />
    <path
       style="fill:#999999;stroke:#999999;stroke-width:2.3077"
       id="path5-2-2-8"
       sodipodi:type="arc"
       sodipodi:cx="155.00002"
       sodipodi:cy="-49.999992"
       sodipodi:rx="3.846158"
       sodipodi:ry="3.846144"
       sodipodi:start="0"
       sodipodi:end="6.2289612"
       sodipodi:open="true"
       sodipodi:arc-type="arc"
       d="m 158.84617,-49.999992 a 3.846158,3.846144 0 0 1 -3.79402,3.84579 3.846158,3.846144 0 0 1 -3.89688,-3.741526 3.846158,3.846144 0 0 1 3.68837,-3.947228 3.846158,3.846144 0 0 1 3.99688,3.634512"
       transform="translate(0,690)"
       inkscape:label="B1" />
    <path
       style="fill:#999999;stroke:#999999;stroke-width:2.3077"
       id="path5-2-17-5"
       sodipodi:type="arc"
       sodipodi:cx="775"
       sodipodi:cy="-49.999992"
       sodipodi:rx="3.8461571"
       sodipodi:ry="3.846144"
       sodipodi:start="0"
       sodipodi:end="6.2289612"
       sodipodi:open="true"
       sodipodi:arc-type="arc"
       d="m 778.84616,-49.999992 a 3.8461571,3.846144 0 0 1 -3.79402,3.84579 3.8461571,3.846144 0 0 1 -3.89688,-3.741526 3.8461571,3.846144 0 0 1 3.68837,-3.947228 3.8461571,3.846144 0 0 1 3.99687,3.634512"
       transform="translate(0,690)"
       inkscape:label="B4" />
    <path
       style="fill:#999999;stroke:#999999;stroke-width:2.3077"
       id="path5-2-2-3"
       sodipodi:type="arc"
       sodipodi:cx="575"
       sodipodi:cy="-49.999992"
       sodipodi:rx="3.846158"
       sodipodi:ry="3.846144"
       sodipodi:start="0"
       sodipodi:end="6.2289612"
       sodipodi:open="true"
       sodipodi:arc-type="arc"
       d="m 578.84616,-49.999992 a 3.846158,3.846144 0 0 1 -3.79402,3.84579 3.846158,3.846144 0 0 1 -3.89688,-3.741526 3.846158,3.846144 0 0 1 3.68837,-3.947228 3.846158,3.846144 0 0 1 3.99688,3.634512"
       transform="translate(0,690)"
       inkscape:label="B3" />
  </g>
  <g
     inkscape:groupmode="layer"
     id="layer3"
     inkscape:label="Mount">
    <rect
       style="fill:#999999;stroke:#666666;stroke-width:2.97182;stroke-dasharray:none"
       id="rect1"
       width="917.0282"
       height="97.028175"
       x="1.4859122"
       y="1.4859122"
       transform="translate(0,690)"
       inkscape:label="Mount" />
    <path
       style="fill:#333333;stroke:none;stroke-width:3.00001"
       id="path5-2-4-9-9"
       sodipodi:type="arc"
       sodipodi:cx="70"
       sodipodi:cy="25"
       sodipodi:rx="5"
       sodipodi:ry="5"
       sodipodi:start="0"
       sodipodi:end="6.2289612"
       sodipodi:open="true"
       sodipodi:arc-type="arc"
       d="m 75,25 a 5,5 0 0 1 -4.932222,4.999541 5,5 0 0 1 -5.06594,-4.863997 5,5 0 0 1 4.794878,-5.13141 5,5 0 0 1 5.195935,4.724878"
       transform="translate(0,690)"
       inkscape:label="Hole1" />
    <path
       style="fill:#333333;stroke:none;stroke-width:3.00001"
       id="path5-2-4-9-9-6"
       sodipodi:type="arc"
       sodipodi:cx="70"
       sodipodi:cy="74.995178"
       sodipodi:rx="5"
       sodipodi:ry="5"
       sodipodi:start="0"
       sodipodi:end="6.2289612"
       sodipodi:open="true"
       sodipodi:arc-type="arc"
       d="m 75,74.995178 a 5,5 0 0 1 -4.932222,4.999541 5,5 0 0 1 -5.06594,-4.863997 5,5 0 0 1 4.794878,-5.13141 5,5 0 0 1 5.195935,4.724879"
       transform="translate(0,690)"
       inkscape:label="Hole3" />
    <path
       style="fill:#333333;stroke:none;stroke-width:3.00001"
       id="path5-2-4-9-9-5"
       sodipodi:type="arc"
       sodipodi:cx="850"
       sodipodi:cy="715"
       sodipodi:rx="5"
       sodipodi:ry="5"
       sodipodi:start="0"
       sodipodi:end="6.2289612"
       sodipodi:open="true"
       sodipodi:arc-type="arc"
       d="m 855,715 a 5,5 0 0 1 -4.93222,4.99954 5,5 0 0 1 -5.06594,-4.864 5,5 0 0 1 4.79488,-5.13141 5,5 0 0 1 5.19593,4.72488"
       inkscape:label="Hole2" />
    <path
       style="fill:#333333;stroke:none;stroke-width:3.00001"
       id="path5-2-4-9-9-5-2"
       sodipodi:type="arc"
       sodipodi:cx="850"
       sodipodi:cy="765"
       sodipodi:rx="5"
       sodipodi:ry="5"
       sodipodi:start="0"
       sodipodi:end="6.2289612"
       sodipodi:open="true"
       sodipodi:arc-type="arc"
       d="m 855,765 a 5,5 0 0 1 -4.93222,4.99954 5,5 0 0 1 -5.06594,-4.864 5,5 0 0 1 4.79488,-5.13141 5,5 0 0 1 5.19593,4.72488"
       inkscape:transform-center-x="-34.802912"
       inkscape:transform-center-y="3.314563"
       inkscape:label="Hole4" />
  </g>
  <g
     inkscape:groupmode="layer"
     id="layer4"
     inkscape:label="State">
    <path
       id="rect10"
       style="display:inline;fill:#eeab5f;fill-opacity:1;stroke-width:2.92361"
       d="M 127.21394,110 337.4337,322.57373 337.29162,322.71699 420,406.11914 V 610 H 353.0372 V 433.84913 L 80,157.74757 Z"
       inkscape:label="Left" />
  </g>
</svg>
