<?xml version="1.0" encoding="UTF-8"?><svg xmlns="http://www.w3.org/2000/svg" viewBox="0 0 500 790"><path fill="#999" d="M0 0h500v690H0z"/><path d="M10 30h480v660H10z"/><path fill="#484c63" d="M70 100h360v520H70z"/><path fill="#999" stroke="#999" stroke-width="2.308" d="M358.846 80a3.846 3.846 0 0 1-3.794 3.846 3.846 3.846 0 0 1-3.897-3.742 3.846 3.846 0 0 1 3.689-3.947 3.846 3.846 0 0 1 3.997 3.635M158.846 80a3.846 3.846 0 0 1-3.794 3.846 3.846 3.846 0 0 1-3.897-3.742 3.846 3.846 0 0 1 3.689-3.947 3.846 3.846 0 0 1 3.997 3.635M358.846 640a3.846 3.846 0 0 1-3.794 3.846 3.846 3.846 0 0 1-3.897-3.742 3.846 3.846 0 0 1 3.689-3.947 3.846 3.846 0 0 1 3.997 3.635M158.846 640a3.846 3.846 0 0 1-3.794 3.846 3.846 3.846 0 0 1-3.897-3.742 3.846 3.846 0 0 1 3.689-3.947 3.846 3.846 0 0 1 3.997 3.635M53.846 360a3.846 3.846 0 0 1-3.794 3.846 3.846 3.846 0 0 1-3.897-3.742 3.846 3.846 0 0 1 3.689-3.947 3.846 3.846 0 0 1 3.997 3.635M53.846 550a3.846 3.846 0 0 1-3.794 3.846 3.846 3.846 0 0 1-3.897-3.742 3.846 3.846 0 0 1 3.689-3.947 3.846 3.846 0 0 1 3.997 3.635M53.846 170a3.846 3.846 0 0 1-3.794 3.846 3.846 3.846 0 0 1-3.897-3.742 3.846 3.846 0 0 1 3.689-3.947 3.846 3.846 0 0 1 3.997 3.635M453.846 360a3.846 3.846 0 0 1-3.794 3.846 3.846 3.846 0 0 1-3.897-3.742 3.846 3.846 0 0 1 3.689-3.947 3.846 3.846 0 0 1 3.997 3.635M453.846 550a3.846 3.846 0 0 1-3.794 3.846 3.846 3.846 0 0 1-3.897-3.742 3.846 3.846 0 0 1 3.689-3.947 3.846 3.846 0 0 1 3.997 3.635M453.846 170a3.846 3.846 0 0 1-3.794 3.846 3.846 3.846 0 0 1-3.897-3.742 3.846 3.846 0 0 1 3.689-3.947 3.846 3.846 0 0 1 3.997 3.635"/><path fill="#999" stroke="#666" stroke-width="2.198" d="M1.099 691.099h497.802v97.802H1.099z"/><path fill="#333" d="M455 764.995a5 5 0 0 1-4.932 5 5 5 0 0 1-5.066-4.864 5 5 0 0 1 4.795-5.132 5 5 0 0 1 5.196 4.725M55 764.995a5 5 0 0 1-4.932 5 5 5 0 0 1-5.066-4.864 5 5 0 0 1 4.795-5.132 5 5 0 0 1 5.196 4.725M455 715a5 5 0 0 1-4.932 5 5 5 0 0 1-5.066-4.864 5 5 0 0 1 4.795-5.132 5 5 0 0 1 5.196 4.725M55 715a5 5 0 0 1-4.932 5 5 5 0 0 1-5.066-4.864 5 5 0 0 1 4.795-5.132 5 5 0 0 1 5.196 4.725"/><path fill="#eeab5f" d="M85 115v230h.563L355 421.615V605h60V375h-.562L145 298.385V115Z"/></svg>