<?xml version="1.0" encoding="UTF-8"?>
<svg version="1.1" viewBox="0 0 72 64" xmlns="http://www.w3.org/2000/svg"><path d="m0 0h71.862v64h-71.862z" fill="#fff"/><path d="m3.423 2.987h65.154v58.026h-65.154z" fill="none" stroke="#000" stroke-width="4.211"/><path d="m20.111 24.404h-3.2344q0 0.4043-0.19336 0.77344-0.17578 0.4043-0.47461 0.70312-0.31641 0.31641-0.70312 0.49219-0.4043 0.17578-0.79102 0.19336-0.4043 0-0.77344-0.19336-0.4043-0.17578-0.70312-0.49219-0.31641-0.29883-0.50977-0.70312-0.17578-0.38672-0.17578-0.77344v-7.207q0-0.4043 0.17578-0.79102t0.50977-0.70312q0.29883-0.29883 0.70312-0.47461 0.38672-0.17578 0.77344-0.19336 0.4043 0 0.79102 0.19336 0.38672 0.17578 0.70312 0.47461 0.29883 0.31641 0.47461 0.70312 0.17578 0.4043 0.19336 0.79102h3.2344q0-0.98438-0.45703-1.9512-0.45703-0.9668-1.2129-1.7754-0.79102-0.77344-1.7754-1.2129-0.9668-0.45703-1.9512-0.45703t-1.9688 0.45703q-0.9668 0.45703-1.7402 1.2129-0.79102 0.79102-1.248 1.7754-0.45703 0.9668-0.43945 1.9512v7.207q0 0.98438 0.43945 1.9512 0.45703 0.9668 1.248 1.7578 0.77344 0.79102 1.7402 1.2305 0.9668 0.45703 1.9688 0.45703 0.98438 0 1.9512-0.45703t1.7754-1.2305q0.77344-0.77344 1.2129-1.7578 0.45703-0.9668 0.45703-1.9512z" aria-label="C"/><path d="m25.338 23.926 0.47266 1.9121h-0.90234zm0.94531 3.8994 0.49414 1.9766h1.8691l-2.3096-11h-1.9873l-2.3096 11h1.9873l0.42969-1.9766zm10.603-5.7363q0-0.60156-0.2793-1.1924-0.2793-0.58008-0.74121-1.0742-0.4834-0.47266-1.085-0.74121-0.59082-0.2793-1.1924-0.2793h-3.3086v11h1.9873v-4.4043h1.3213q0.24707 0 0.4834 0.11816 0.23633 0.10742 0.42969 0.29004 0.18262 0.19336 0.29004 0.42969 0.10742 0.24707 0.10742 0.4834v3.083h1.9873v-3.083q0-0.56934-0.12891-0.99902-0.13965-0.42969-0.33301-0.69824-0.19336-0.2793-0.35449-0.4082-0.16113-0.11816-0.2793-0.2041l0.02148-0.02148q0.12891-0.12891 0.29004-0.30078 0.15039-0.17188 0.34375-0.4834 0.17188-0.30078 0.31152-0.6875 0.12891-0.38672 0.12891-0.82715zm-3.2979 1.332h-1.3213v-2.6426h1.3213q0.24707 0 0.4834 0.11816 0.23633 0.10742 0.42969 0.29004 0.18262 0.19336 0.29004 0.42969 0.10742 0.24707 0.10742 0.4834 0 0.24707-0.10742 0.47266-0.10742 0.24707-0.29004 0.42969-0.19336 0.19336-0.42969 0.31152-0.23633 0.10742-0.4834 0.10742zm11.709-1.332q0-0.60156-0.2793-1.1924-0.2793-0.58008-0.74121-1.0742-0.4834-0.47266-1.085-0.74121-0.59082-0.2793-1.1924-0.2793h-3.3086v11h1.9873v-4.4043h1.3213q0.24707 0 0.4834 0.11816 0.23633 0.10742 0.42969 0.29004 0.18262 0.19336 0.29004 0.42969 0.10742 0.24707 0.10742 0.4834v3.083h1.9873v-3.083q0-0.56934-0.12891-0.99902-0.13965-0.42969-0.33301-0.69824-0.19336-0.2793-0.35449-0.4082-0.16113-0.11816-0.2793-0.2041l0.02148-0.02148q0.12891-0.12891 0.29004-0.30078 0.15039-0.17188 0.34375-0.4834 0.17188-0.30078 0.31152-0.6875 0.12891-0.38672 0.12891-0.82715zm-3.2979 1.332h-1.3213v-2.6426h1.3213q0.24707 0 0.4834 0.11816 0.23633 0.10742 0.42969 0.29004 0.18262 0.19336 0.29004 0.42969 0.10742 0.24707 0.10742 0.4834 0 0.24707-0.10742 0.47266-0.10742 0.24707-0.29004 0.42969-0.19336 0.19336-0.42969 0.31152-0.23633 0.10742-0.4834 0.10742zm8.9268-8.583h-1.6006l-0.98828 1.9873h1.5361zm-1.8369 8.4434v-2.5029h4.6191v-1.9766h-6.6064v11h6.6064v-1.9766h-4.6191v-2.5674h1.9766v-1.9766zm11.778 2.8896q-1.8154 0-1.8154 1.8154t1.8154 1.8154h1.8154v-4.2324q0-1.8154-1.8154-1.8154t-1.8154 1.8154h1.2139q0-0.23633 0.18262-0.41895 0.17188-0.18262 0.41894-0.19336 0.24707 0 0.42969 0.18262 0.17188 0.18262 0.18262 0.42969 0 0.23633-0.18262 0.41894-0.18262 0.18262-0.42969 0.18262zm0.6123 0.60156v1.2139q0 0.23633-0.18262 0.41894-0.18262 0.18262-0.42969 0.18262t-0.41894-0.18262q-0.18262-0.18262-0.18262-0.41894t0.18262-0.41894q0.17188-0.18262 0.41894-0.18262t0.42969-0.19336q0.18262-0.18262 0.18262-0.41894zm0-3.6309-0.6123-1.2031h-0.98828l0.98828 1.2031z" aria-label="ARRÉ à"/><path d="m16.708 39.596q-0.61524 0-0.84375 0.035156-0.22852 0.035156-0.42188 0.12305v-2.3203h5.7656v-3.2344h-9v8.0684l3.2344 1.0547q0.017578-0.1582 0.28125-0.31641t0.98438-0.1582q0.4043 0 0.79102 0.17578 0.38672 0.17578 0.70312 0.47461 0.29883 0.31641 0.47461 0.70312 0.17578 0.4043 0.19336 0.79102v1.8105q0 0.4043-0.19336 0.77344-0.17578 0.4043-0.47461 0.70312-0.31641 0.31641-0.70312 0.49219-0.4043 0.17578-0.79102 0.19336-0.4043 0-0.77344-0.19336-0.4043-0.17578-0.70312-0.49219-0.31641-0.29883-0.50976-0.70312-0.17578-0.38672-0.17578-0.77344h-3.2344q0 0.98438 0.43945 1.9512 0.45703 0.9668 1.248 1.7578 0.77344 0.79102 1.7402 1.2305 0.9668 0.45703 1.9688 0.45703 0.98438 0 1.9512-0.45703t1.7754-1.2305q0.77344-0.77344 1.2129-1.7578 0.45703-0.9668 0.45703-1.9512v-1.8105q0-0.98438-0.45703-1.9512t-1.2129-1.7754q-0.79102-0.77344-1.7754-1.2129-0.9668-0.45703-1.9512-0.45703zm13.131 12.604q0.98438 0 1.9512-0.45703t1.7754-1.2305q0.77344-0.77344 1.2129-1.7578 0.45703-0.9668 0.45703-1.9512v-7.207q0-0.98438-0.45703-1.9512-0.45703-0.9668-1.2129-1.7754-0.79102-0.77344-1.7754-1.2129-0.9668-0.45703-1.9512-0.45703t-1.9688 0.45703q-0.9668 0.45703-1.7402 1.2129-0.79102 0.79102-1.248 1.7754-0.45703 0.9668-0.43945 1.9512v7.207q0 0.98438 0.43945 1.9512 0.45703 0.9668 1.248 1.7578 0.77344 0.79102 1.7402 1.2305 0.98438 0.45703 1.9688 0.45703zm0-3.2344q-0.4043 0-0.77344-0.19336-0.4043-0.17578-0.70312-0.49219-0.31641-0.29883-0.50977-0.70312-0.17578-0.38672-0.17578-0.77344v-7.207q0-0.4043 0.17578-0.79102t0.50977-0.70312q0.29883-0.29883 0.70312-0.47461 0.38672-0.17578 0.77344-0.19336 0.4043 0 0.79102 0.19336 0.38672 0.17578 0.70312 0.47461 0.29883 0.31641 0.47461 0.70312 0.17578 0.4043 0.19336 0.79102v7.207q0 0.4043-0.19336 0.77344-0.17578 0.4043-0.47461 0.70312-0.31641 0.31641-0.70312 0.49219-0.38672 0.19336-0.79102 0.19336zm13.131 3.2344q0.98438 0 1.9512-0.45703 0.9668-0.45703 1.7754-1.2305 0.77344-0.77344 1.2129-1.7578 0.45703-0.9668 0.45703-1.9512v-7.207q0-0.98438-0.45703-1.9512-0.45703-0.9668-1.2129-1.7754-0.79102-0.77344-1.7754-1.2129-0.9668-0.45703-1.9512-0.45703t-1.9688 0.45703q-0.9668 0.45703-1.7402 1.2129-0.79102 0.79102-1.248 1.7754-0.45703 0.9668-0.43945 1.9512v7.207q0 0.98438 0.43945 1.9512 0.45703 0.9668 1.248 1.7578 0.77344 0.79102 1.7402 1.2305 0.98438 0.45703 1.9688 0.45703zm0-3.2344q-0.4043 0-0.77344-0.19336-0.4043-0.17578-0.70312-0.49219-0.31641-0.29883-0.50977-0.70312-0.17578-0.38672-0.17578-0.77344v-7.207q0-0.4043 0.17578-0.79102 0.17578-0.38672 0.50977-0.70312 0.29883-0.29883 0.70312-0.47461 0.38672-0.17578 0.77344-0.19336 0.4043 0 0.79102 0.19336 0.38672 0.17578 0.70312 0.47461 0.29883 0.31641 0.47461 0.70312 0.17578 0.4043 0.19336 0.79102v7.207q0 0.4043-0.19336 0.77344-0.17578 0.4043-0.47461 0.70312-0.31641 0.31641-0.70312 0.49219-0.38672 0.19336-0.79102 0.19336zm14.748-6.6621q-0.70312 0-1.1777 0.14062-0.47461 0.1582-0.80859 0.4043-0.28125-0.22852-0.75586-0.4043-0.49219-0.14062-1.2129-0.14062-0.4043 0-0.59766 0.017578-0.21094 0.035156-0.4043 0.087891v-0.10547h-1.9688v9.8965h1.9688v-6.9258q0-0.38672 0.31641-0.68555 0.28125-0.29883 0.68555-0.31641 0.4043 0 0.70312 0.29883 0.28125 0.29883 0.28125 0.70312v6.9258h1.9863v-6.9258q0-0.38672 0.29883-0.68555 0.28125-0.29883 0.68555-0.31641 0.4043 0 0.70312 0.29883 0.28125 0.29883 0.28125 0.70312v6.9258h1.9863v-6.9258q0-2.9707-2.9707-2.9707z" aria-label="500m"/></svg>
