<?xml version="1.0" encoding="UTF-8" standalone="no"?>
<svg
   width="72"
   height="64"
   version="1.1"
   id="svg6"
   sodipodi:docname="Pancarte Carré A.svg"
   inkscape:version="1.3.2 (091e20e, 2023-11-25, custom)"
   xmlns:inkscape="http://www.inkscape.org/namespaces/inkscape"
   xmlns:sodipodi="http://sodipodi.sourceforge.net/DTD/sodipodi-0.dtd"
   xmlns="http://www.w3.org/2000/svg"
   xmlns:svg="http://www.w3.org/2000/svg">
  <defs
     id="defs6" />
  <sodipodi:namedview
     id="namedview6"
     pagecolor="#505050"
     bordercolor="#eeeeee"
     borderopacity="1"
     inkscape:showpageshadow="0"
     inkscape:pageopacity="0"
     inkscape:pagecheckerboard="0"
     inkscape:deskcolor="#d1d1d1"
     inkscape:zoom="14.46875"
     inkscape:cx="51.904968"
     inkscape:cy="34.937365"
     inkscape:window-width="2560"
     inkscape:window-height="1494"
     inkscape:window-x="2549"
     inkscape:window-y="-11"
     inkscape:window-maximized="1"
     inkscape:current-layer="svg6" />
  <path
     d="M 0,0 H 71.861772 V 64 H 0 Z"
     style="fill:#ffffff;fill-opacity:1;fill-rule:nonzero;stroke:none;stroke-width:0.674805"
     id="path1" />
  <path
     d="M 3.4230381,2.987 H 68.576962 V 61.013 H 3.4230381 Z"
     style="fill:none;stroke:#000000;stroke-width:4.21095;stroke-miterlimit:4;stroke-dasharray:none;stroke-opacity:1"
     id="path2" />
  <text
     xml:space="preserve"
     style="font-size:28px;font-family:PoliceSNCF;-inkscape-font-specification:'PoliceSNCF, Normal';fill:#000000;stroke:none;stroke-width:3.984;stroke-linejoin:round"
     x="27.231102"
     y="9.8142548"
     id="text6"><tspan
       sodipodi:role="line"
       id="tspan6"
       x="27.231102"
       y="9.8142548" /></text>
  <path
     d="m 20.111227,24.404266 h -3.234375 q 0,0.404297 -0.19336,0.773437 -0.175781,0.404297 -0.474609,0.703125 -0.316406,0.316407 -0.703125,0.492188 -0.404297,0.175781 -0.791016,0.193359 -0.404297,0 -0.773437,-0.193359 Q 13.537008,26.197235 13.23818,25.880828 12.921773,25.582 12.728414,25.177703 12.552633,24.790985 12.552633,24.404266 v -7.207031 q 0,-0.404297 0.175781,-0.791016 0.175781,-0.386719 0.509766,-0.703125 0.298828,-0.298828 0.703125,-0.474609 0.386718,-0.175782 0.773437,-0.19336 0.404297,0 0.791016,0.19336 0.386719,0.175781 0.703125,0.474609 0.298828,0.316406 0.474609,0.703125 0.175781,0.404297 0.19336,0.791016 h 3.234375 q 0,-0.984375 -0.457032,-1.951172 -0.457031,-0.966797 -1.21289,-1.775391 -0.791016,-0.773437 -1.775391,-1.21289 -0.966797,-0.457032 -1.951172,-0.457032 -0.984375,0 -1.96875,0.457032 -0.966797,0.457031 -1.740234,1.21289 -0.791016,0.791016 -1.2480472,1.775391 -0.457031,0.966797 -0.439453,1.951172 v 7.207031 q 0,0.984375 0.439453,1.951172 0.4570312,0.966797 1.2480472,1.757812 0.773437,0.791016 1.740234,1.230469 0.966797,0.457031 1.96875,0.457031 0.984375,0 1.951172,-0.457031 0.966797,-0.457031 1.775391,-1.230469 0.773437,-0.773437 1.21289,-1.757812 0.457032,-0.966797 0.457032,-1.951172 z"
     id="text7"
     style="font-size:18px;font-family:PoliceSNCF;-inkscape-font-specification:'PoliceSNCF, Normal';stroke-width:3.984;stroke-linejoin:round"
     aria-label="C" />
  <path
     d="m 25.338079,23.925775 0.472656,1.912109 h -0.902343 z m 0.945313,3.899414 0.49414,1.976563 h 1.869141 l -2.309571,-11 h -1.987304 l -2.309571,11 h 1.987305 l 0.429688,-1.976563 z m 10.602539,-5.736328 q 0,-0.601563 -0.279297,-1.192383 -0.279297,-0.580078 -0.741211,-1.074219 -0.483399,-0.472656 -1.084961,-0.741211 -0.59082,-0.279296 -1.192383,-0.279296 h -3.308594 v 11 h 1.987305 v -4.404297 h 1.321289 q 0.24707,0 0.483398,0.118164 0.236329,0.107422 0.429688,0.290039 0.182617,0.193359 0.290039,0.429687 0.107422,0.247071 0.107422,0.483399 v 3.083008 h 1.987305 v -3.083008 q 0,-0.569336 -0.128907,-0.999024 -0.139648,-0.429687 -0.333007,-0.698242 -0.19336,-0.279297 -0.354493,-0.408203 -0.161132,-0.118164 -0.279297,-0.204102 l 0.02148,-0.02148 q 0.128906,-0.128906 0.290039,-0.300781 0.150391,-0.171875 0.34375,-0.483399 0.171875,-0.300781 0.311523,-0.6875 0.128907,-0.386718 0.128907,-0.827148 z m -3.297852,1.332031 H 32.26679 v -2.642578 h 1.321289 q 0.24707,0 0.483398,0.118164 0.236329,0.107422 0.429688,0.290039 0.182617,0.19336 0.290039,0.429688 0.107422,0.24707 0.107422,0.483398 0,0.24707 -0.107422,0.472656 -0.107422,0.247071 -0.290039,0.429688 -0.193359,0.193359 -0.429688,0.311523 -0.236328,0.107422 -0.483398,0.107422 z m 11.708984,-1.332031 q 0,-0.601563 -0.279296,-1.192383 Q 44.73847,20.3164 44.276556,19.822259 43.793157,19.349603 43.191595,19.081048 42.600774,18.801752 41.999212,18.801752 h -3.308594 v 11 h 1.987305 v -4.404297 h 1.321289 q 0.24707,0 0.483398,0.118164 0.236328,0.107422 0.429688,0.290039 0.182617,0.193359 0.290039,0.429687 0.107422,0.247071 0.107422,0.483399 v 3.083008 h 1.987304 v -3.083008 q 0,-0.569336 -0.128906,-0.999024 -0.139648,-0.429687 -0.333008,-0.698242 -0.193359,-0.279297 -0.354492,-0.408203 -0.161133,-0.118164 -0.279297,-0.204102 l 0.02148,-0.02148 q 0.128906,-0.128906 0.290039,-0.300781 0.15039,-0.171875 0.34375,-0.483399 0.171875,-0.300781 0.311523,-0.6875 0.128906,-0.386718 0.128906,-0.827148 z m -3.297851,1.332031 h -1.321289 v -2.642578 h 1.321289 q 0.24707,0 0.483398,0.118164 0.236328,0.107422 0.429688,0.290039 0.182617,0.19336 0.290039,0.429688 0.107422,0.24707 0.107422,0.483398 0,0.24707 -0.107422,0.472656 -0.107422,0.247071 -0.290039,0.429688 -0.19336,0.193359 -0.429688,0.311523 -0.236328,0.107422 -0.483398,0.107422 z m 8.926758,-8.583008 h -1.600586 l -0.988282,1.987305 h 1.536133 z m -1.836914,8.44336 v -2.50293 h 4.61914 v -1.976562 h -6.606445 v 11 h 6.606445 v -1.976563 h -4.61914 v -2.567383 h 1.976562 v -1.976562 z m 11.777908,2.889648 q -1.81543,0 -1.81543,1.81543 0,1.81543 1.81543,1.81543 h 1.81543 V 25.56933 q 0,-1.81543 -1.81543,-1.81543 -1.81543,0 -1.81543,1.81543 h 1.213867 q 0,-0.236328 0.182618,-0.418946 0.171875,-0.182617 0.418945,-0.193359 0.24707,0 0.429687,0.182617 0.171875,0.182617 0.182618,0.429688 0,0.236328 -0.182618,0.418945 -0.182617,0.182617 -0.429687,0.182617 z m 0.612305,0.601563 v 1.213867 q 0,0.236328 -0.182618,0.418945 -0.182617,0.182617 -0.429687,0.182617 -0.24707,0 -0.418945,-0.182617 -0.182618,-0.182617 -0.182618,-0.418945 0,-0.236328 0.182618,-0.418945 0.171875,-0.182618 0.418945,-0.182618 0.24707,0 0.429687,-0.193359 0.182618,-0.182617 0.182618,-0.418945 z m 0,-3.63086 -0.612305,-1.203125 h -0.988281 l 0.988281,1.203125 z"
     id="text8"
     style="font-size:11px;font-family:PoliceSNCF;-inkscape-font-specification:'PoliceSNCF, Normal';stroke-width:3.984;stroke-linejoin:round"
     aria-label="ARRÉ à" />
  <text
     xml:space="preserve"
     style="font-style:normal;font-variant:normal;font-weight:normal;font-stretch:normal;font-size:18px;font-family:PoliceSNCF;-inkscape-font-specification:'PoliceSNCF, Normal';font-variant-ligatures:normal;font-variant-caps:normal;font-variant-numeric:normal;font-variant-east-asian:normal;fill:#000000;stroke:none;stroke-width:3.984;stroke-linejoin:round"
     x="10.133789"
     y="52.199249"
     id="text9"><tspan
       sodipodi:role="line"
       id="tspan9"
       x="10.133789"
       y="52.199249">500m</tspan></text>
</svg>
