<?xml version="1.0" encoding="UTF-8"?>
<svg version="1.1" viewBox="0 0 100 101" xmlns="http://www.w3.org/2000/svg"><g transform="translate(-107.73 -4.8419)"><rect x="107.73" y="4.8419" width="100" height="101"/><rect x="111.65" y="8.7422" width="92.17" height="93.199" fill="none" stroke="#fff" stroke-width="5.7023"/><g fill="#fff"><path d="m124.3 65.713v-28.633h5.7812v28.633z"/><path d="m135.12 44.971h5.0586v2.832c1.8099-2.2005 3.9648-3.3008 6.4648-3.3008 1.3281 2.1e-5 2.4804 0.27346 3.457 0.82031 0.97654 0.54689 1.7773 1.3737 2.4023 2.4805 0.91144-1.1068 1.8945-1.9336 2.9492-2.4805 1.0547-0.54686 2.181-0.82029 3.3789-0.82031 1.5234 2.1e-5 2.8125 0.30927 3.8672 0.92773 1.0546 0.61851 1.8424 1.5267 2.3633 2.7246 0.37757 0.88543 0.56637 2.3177 0.5664 4.2969v13.262h-5.4883v-11.855c-3e-5 -2.0573-0.18883-3.3854-0.5664-3.9844-0.50784-0.78123-1.2891-1.1719-2.3438-1.1719-0.76826 1.7e-5 -1.4909 0.23439-2.168 0.70312-0.67711 0.46877-1.1654 1.1556-1.4648 2.0605-0.2995 0.90496-0.44924 2.334-0.44922 4.2871v9.9609h-5.4883v-11.367c-1e-5 -2.0182-0.0977-3.3203-0.29297-3.9062-0.19532-0.58592-0.49806-1.0221-0.9082-1.3086-0.41017-0.28644-0.96681-0.42967-1.6699-0.42969-0.84637 1.7e-5 -1.6081 0.22788-2.2852 0.68359-0.67709 0.45574-1.1621 1.1133-1.4551 1.9727-0.29298 0.85939-0.43947 2.2852-0.43946 4.2773v10.078h-5.4883z"/><path d="m170.93 44.971h5.1172v3.0469c0.66405-1.0416 1.5625-1.888 2.6953-2.5391 1.1328-0.65102 2.3893-0.97654 3.7695-0.97656 2.4088 2.1e-5 4.4531 0.94403 6.1328 2.832 1.6797 1.888 2.5195 4.5182 2.5195 7.8906-3e-5 3.4635-0.84638 6.1556-2.5391 8.0762-1.6927 1.9206-3.7435 2.8809-6.1523 2.8809-1.1458-1e-6 -2.1843-0.22786-3.1152-0.68359-0.931-0.45573-1.9108-1.237-2.9395-2.3438v10.449h-5.4883zm5.4297 10.02c-1e-5 2.3307 0.46223 4.0527 1.3867 5.166 0.92447 1.1133 2.0508 1.6699 3.3789 1.6699 1.276 4e-6 2.3372-0.51106 3.1836-1.5332 0.84634-1.0221 1.2695-2.6986 1.2695-5.0293-2e-5 -2.1745-0.43621-3.789-1.3086-4.8438-0.87241-1.0547-1.9531-1.582-3.2422-1.582-1.3412 1.6e-5 -2.4544 0.51759-3.3398 1.5527-0.88542 1.0352-1.3281 2.5684-1.3281 4.5996z"/></g></g></svg>
