<?xml version="1.0" encoding="UTF-8"?><svg xmlns="http://www.w3.org/2000/svg" viewBox="0 0 500 500"><path d="M0 0h500v500H0z"/><path fill="none" stroke="#fff" stroke-width="19.984" d="M13.992 13.992h472.02v472.02H13.992z"/><g fill="#fff" stroke-width="20"><path d="M146.35 184.86q-11.25 0-19.8-4.35-8.55-4.5-13.2-12.45t-4.65-18.45v-37.05q0-10.5 4.65-18.45t13.2-12.3 19.8-4.35q11.1 0 19.65 4.2t13.2 11.85 4.65 17.7q0 .75-.6 1.35-.45.45-1.2.45l-13.8.75q-1.8 0-1.8-1.65 0-8.85-5.55-14.25-5.4-5.4-14.55-5.4t-14.7 5.4-5.55 14.25v38.25q0 8.7 5.55 14.1t14.7 5.4 14.55-5.25q5.55-5.4 5.55-14.25 0-1.65 1.8-1.65l13.8.6q.75 0 1.2.45.6.45.6 1.05 0 10.2-4.65 18-4.65 7.65-13.2 11.85t-19.65 4.2" aria-label="C"/><path d="M261.25 138.21q3.3 6.6 3.3 15.15 0 9-3.9 16.35-3.9 7.05-11.4 11.1t-17.7 4.05q-10.05 0-17.85-3.9-7.8-4.05-11.7-11.7-3.9-7.05-3.9-16.05 0-8.1 3.45-15.3 3-6.15 8.55-9.3.75-.45.15-1.05-3.75-2.7-6.75-7.5-3.9-6.3-3.9-13.95 0-9.45 5.55-16.95 4.05-5.85 10.95-9 6.9-3.3 15.45-3.3 8.85 0 15.45 3.3 6.75 3.15 10.8 9 5.25 7.65 5.25 16.95 0 8.25-4.05 14.4-2.85 4.2-6.6 6.9-.6.6 0 1.05 5.7 3.3 8.85 9.75m-42.6-38.7q-1.8 3.9-1.8 6.9 0 5.1 2.55 9.15 3.6 6.15 12 6.15 8.1 0 12.3-6.3 2.25-3.3 2.25-9.15 0-3.3-1.65-6.9-1.95-3.45-5.25-5.4-3.3-2.1-7.8-2.1-4.2 0-7.5 2.1-3.3 1.95-5.1 5.55m25.2 64.2q3.15-4.35 3.15-11.85 0-6.9-2.4-10.8-3.75-6.9-13.2-6.9-8.85 0-12.9 6.6-2.55 4.05-2.55 11.25 0 6.9 2.7 11.25 4.05 6.6 12.9 6.6 8.4 0 12.3-6.15m97.35-25.5q3.3 6.6 3.3 15.15 0 9-3.9 16.35-3.9 7.05-11.4 11.1t-17.7 4.05q-10.05 0-17.85-3.9-7.8-4.05-11.7-11.7-3.9-7.05-3.9-16.05 0-8.1 3.45-15.3 3-6.15 8.55-9.3.75-.45.15-1.05-3.75-2.7-6.75-7.5-3.9-6.3-3.9-13.95 0-9.45 5.55-16.95 4.05-5.85 10.95-9 6.9-3.3 15.45-3.3 8.85 0 15.45 3.3 6.75 3.15 10.8 9 5.25 7.65 5.25 16.95 0 8.25-4.05 14.4-2.85 4.2-6.6 6.9-.6.6 0 1.05 5.7 3.3 8.85 9.75m-42.6-38.7q-1.8 3.9-1.8 6.9 0 5.1 2.55 9.15 3.6 6.15 12 6.15 8.1 0 12.3-6.3 2.25-3.3 2.25-9.15 0-3.3-1.65-6.9-1.95-3.45-5.25-5.4-3.3-2.1-7.8-2.1-4.2 0-7.5 2.1-3.3 1.95-5.1 5.55m25.2 64.2q3.15-4.35 3.15-11.85 0-6.9-2.4-10.8-3.75-6.9-13.2-6.9-8.85 0-12.9 6.6-2.55 4.05-2.55 11.25 0 6.9 2.7 11.25 4.05 6.6 12.9 6.6 8.4 0 12.3-6.15" aria-label="8"/><path d="M372.85 79.11q1.2-.45 2.25-.45h14.4q.75 0 1.2.6.6.45.6 1.2v101.4q0 .75-.6 1.35-.45.45-1.2.45h-13.8q-.75 0-1.35-.45-.45-.6-.45-1.35v-85.2q0-.3-.3-.45-.3-.3-.6-.15l-15 4.65q-.3.15-.75.15-.6 0-1.05-.45-.3-.45-.3-1.2l-.45-9.9q0-1.5 1.2-2.1z" aria-label="1"/><path d="M79.78 231.34q7.56 0 13.32 2.64t8.88 7.32q3.12 4.56 3.12 10.44v40.44q0 .6-.48 1.08-.36.36-.96.36H92.62q-.6 0-1.08-.36-.36-.48-.36-1.08v-3.84q0-.36-.24-.36-.24-.12-.48.12-5.88 6.48-17.04 6.48-9 0-14.88-4.56-5.76-4.56-5.76-13.56 0-9.36 6.48-14.52 6.6-5.28 18.48-5.28h12.84q.6 0 .6-.6v-2.88q0-4.68-2.76-7.2-2.76-2.64-8.28-2.64-4.56 0-7.44 1.68-2.76 1.56-3.48 4.44-.36 1.44-1.68 1.2l-11.64-1.44q-.6-.12-1.08-.36-.36-.36-.24-.84.96-7.32 7.8-12 6.96-4.68 17.4-4.68m-2.88 52.2q5.88 0 10.08-3.12t4.2-7.92v-5.64q0-.6-.6-.6H80.5q-6.36 0-10.08 2.4-3.6 2.4-3.6 6.84 0 3.84 2.76 6 2.88 2.04 7.32 2.04m8.4-60.6q.24.48.24.72 0 .96-1.2.96h-7.92q-1.08 0-1.68-.96l-8.28-12.24q-.24-.48-.24-.84 0-.96 1.2-.96h9.48q1.32 0 1.8.96z" aria-label="à"/><path d="M181.06 211.06q0-.6.36-.96.48-.48 1.08-.48h11.04q.6 0 .96.48.48.36.48.96v81.12q0 .6-.48 1.08-.36.36-.96.36H182.5q-.6 0-1.08-.36-.36-.48-.36-1.08v-3.6q0-.36-.24-.48t-.48.24q-5.28 6.24-13.8 6.24t-14.4-4.44-8.52-12.36q-2.16-6.72-2.16-15 0-8.52 2.04-14.64 2.64-7.92 8.52-12.36t14.76-4.44q8.28 0 13.56 6 .24.24.48.24.24-.12.24-.48zm-2.88 65.76q2.76-4.92 2.76-13.92 0-9.36-3-14.28-3.24-5.28-9.12-5.28-6.12 0-9.6 5.04-3.6 5.28-3.6 14.64 0 8.4 2.88 13.8 3.36 5.76 10.2 5.76 6.12 0 9.48-5.76" aria-label="d"/><path d="M238.66 231.58q3.84 0 6.72 1.56.96.48.72 1.8l-2.04 10.8q-.12 1.44-1.68.84-1.8-.6-4.2-.6-1.56 0-2.4.12-5.04.24-8.4 3.6-3.36 3.24-3.36 8.52v33.96q0 .6-.48 1.08-.36.36-.96.36h-11.04q-.6 0-1.08-.36-.36-.48-.36-1.08v-58.44q0-.6.36-.96.48-.48 1.08-.48h11.04q.6 0 .96.48.48.36.48.96v5.4q0 .48.12.6.24 0 .48-.36 5.04-7.8 14.04-7.8" aria-label="r"/><path d="M280.06 294.58q-9.48 0-16.32-4.8-6.72-4.8-9.48-13.32-2.04-6.48-2.04-13.68 0-7.68 1.92-13.68 2.76-8.4 9.6-13.08t16.44-4.68q9.12 0 15.72 4.68 6.72 4.68 9.48 12.96 2.16 5.76 2.16 13.68 0 7.56-2.04 13.68-2.76 8.52-9.48 13.44-6.72 4.8-15.96 4.8m0-12q4.44 0 7.56-2.52 3.24-2.52 4.68-7.08 1.2-3.96 1.2-10.08 0-6.48-1.2-10.08-1.32-4.56-4.56-6.96-3.24-2.52-7.92-2.52-4.44 0-7.68 2.52-3.24 2.4-4.68 6.96-1.2 4.2-1.2 10.08t1.2 10.08q1.32 4.56 4.56 7.08 3.36 2.52 8.04 2.52" aria-label="o"/><path d="M328.66 223.9q-3.72 0-6.12-2.4t-2.4-6.12 2.4-6.12 6.12-2.4 6.12 2.4 2.4 6.12-2.4 6.12-6.12 2.4m-5.76 69.72q-.6 0-1.08-.36-.36-.48-.36-1.08v-58.56q0-.6.36-.96.48-.48 1.08-.48h11.04q.6 0 .96.48.48.36.48.96v58.56q0 .6-.48 1.08-.36.36-.96.36z" aria-label="i"/><path d="M383.86 242.14q0 .6-.48 1.08-.36.36-.96.36h-12.24q-.6 0-.6.6v28.92q0 4.56 1.92 6.6 2.04 2.04 6.36 2.04h3.6q.6 0 .96.48.48.36.48.96v9q0 1.32-1.44 1.56l-6.24.12q-9.48 0-14.16-3.24t-4.8-12.24v-34.2q0-.6-.6-.6h-6.84q-.6 0-1.08-.36-.36-.48-.36-1.08v-8.4q0-.6.36-.96.48-.48 1.08-.48h6.84q.6 0 .6-.6v-14.04q0-.6.36-.96.48-.48 1.08-.48h10.44q.6 0 .96.48.48.36.48.96v14.04q0 .6.6.6h12.24q.6 0 .96.48.48.36.48.96z" aria-label="t"/><path d="M446.74 256.06q.48 3 .48 6.72l-.12 3.72q0 1.44-1.44 1.44H408.1q-.6 0-.6.6.36 3.96 1.08 5.4 2.88 8.64 14.04 8.76 8.16 0 12.96-6.72.48-.72 1.2-.72.48 0 .84.36l7.44 6.12q1.08.84.36 1.92-3.72 5.28-9.96 8.16-6.12 2.88-13.68 2.88-9.36 0-15.96-4.2-6.48-4.2-9.48-11.76-2.76-6.48-2.76-18 0-6.96 1.44-11.28 2.4-8.4 9-13.2 6.72-4.92 16.08-4.92 23.64 0 26.64 24.72m-26.64-12.72q-4.44 0-7.44 2.28-2.88 2.16-4.08 6.12-.72 2.04-.96 5.28-.24.6.48.6h24.36q.6 0 .6-.6-.24-3-.72-4.56-1.08-4.32-4.32-6.72-3.12-2.4-7.92-2.4" aria-label="e"/><path d="M87.34 359.54q7.56 0 13.32 2.64t8.88 7.32q3.12 4.56 3.12 10.44v40.44q0 .6-.48 1.08-.36.36-.96.36h-11.04q-.6 0-1.08-.36-.36-.48-.36-1.08v-3.84q0-.36-.24-.36-.24-.12-.48.12-5.88 6.48-17.04 6.48-9 0-14.88-4.56-5.76-4.56-5.76-13.56 0-9.36 6.48-14.52 6.6-5.28 18.48-5.28h12.84q.6 0 .6-.6v-2.88q0-4.68-2.76-7.2-2.76-2.64-8.28-2.64-4.56 0-7.44 1.68-2.76 1.56-3.48 4.44-.36 1.44-1.68 1.2l-11.64-1.44q-.6-.12-1.08-.36-.36-.36-.24-.84.96-7.32 7.8-12 6.96-4.68 17.4-4.68m-2.88 52.2q5.88 0 10.08-3.12t4.2-7.92v-5.64q0-.6-.6-.6H88.06q-6.36 0-10.08 2.4-3.6 2.4-3.6 6.84 0 3.84 2.76 6 2.88 2.04 7.32 2.04m8.4-60.6q.24.48.24.72 0 .96-1.2.96h-7.92q-1.08 0-1.68-.96l-8.28-12.24q-.24-.48-.24-.84 0-.96 1.2-.96h9.48q1.32 0 1.8.96z" aria-label="à"/><path d="M186.34 338.18q.96-.36 1.8-.36h11.52q.6 0 .96.48.48.36.48.96v81.12q0 .6-.48 1.08-.36.36-.96.36h-11.04q-.6 0-1.08-.36-.36-.48-.36-1.08v-68.16q0-.24-.24-.36-.24-.24-.48-.12l-12 3.72q-.24.12-.6.12-.48 0-.84-.36-.24-.36-.24-.96l-.36-7.92q0-1.2.96-1.68z" aria-label="1"/><path d="M243.46 423.14q-12.6 0-20.04-7.08-7.32-7.2-7.32-19.32V362.9q0-12 7.32-18.96 7.44-7.08 20.04-7.08t20.04 7.08q7.56 6.96 7.56 18.96v33.84q0 12.12-7.56 19.32-7.44 7.08-20.04 7.08m0-12.12q6.24 0 9.96-3.6 3.72-3.72 3.72-9.96v-35.04q0-6.24-3.72-9.84-3.72-3.72-9.96-3.72-6.12 0-9.84 3.72-3.6 3.6-3.6 9.84v35.04q0 6.24 3.6 9.96 3.72 3.6 9.84 3.6m68.16 12.12q-12.6 0-20.04-7.08-7.32-7.2-7.32-19.32V362.9q0-12 7.32-18.96 7.44-7.08 20.04-7.08t20.04 7.08q7.56 6.96 7.56 18.96v33.84q0 12.12-7.56 19.32-7.44 7.08-20.04 7.08m0-12.12q6.24 0 9.96-3.6 3.72-3.72 3.72-9.96v-35.04q0-6.24-3.72-9.84-3.72-3.72-9.96-3.72-6.12 0-9.84 3.72-3.6 3.6-3.6 9.84v35.04q0 6.24 3.6 9.96 3.72 3.6 9.84 3.6" aria-label="0"/><path d="M418.9 359.54q9.24 0 14.4 5.64 5.28 5.52 5.28 15.48v39.72q0 .6-.48 1.08-.36.36-.96.36h-10.92q-.6 0-1.08-.36-.36-.48-.36-1.08v-36.84q0-5.52-3-8.76-2.88-3.24-7.8-3.24t-8.04 3.24-3.12 8.64v36.96q0 .6-.48 1.08-.36.36-.96.36h-10.92q-.6 0-1.08-.36-.36-.48-.36-1.08v-36.84q0-5.52-3-8.76t-7.92-3.24q-4.56 0-7.56 2.64-2.88 2.64-3.36 7.2v39q0 .6-.48 1.08-.36.36-.96.36H354.7q-.6 0-1.08-.36-.36-.48-.36-1.08v-58.44q0-.6.36-.96.48-.48 1.08-.48h11.04q.6 0 .96.48.48.36.48.96v3.96q0 .36.24.48t.48-.24q2.64-3.36 6.48-4.92 3.96-1.68 8.76-1.68 5.88 0 10.32 2.4t6.84 6.96q.36.48.84 0 2.64-4.8 7.32-7.08t10.44-2.28" aria-label="m"/></g></svg>