<?xml version="1.0" encoding="UTF-8"?><svg xmlns="http://www.w3.org/2000/svg" viewBox="0 0 1000 500"><path d="M0 0h1000v500H0z"/><path fill="#fff" d="M30 30h940v440H30z"/><path d="M157.6 198c-2.7 5.8-6.3 10.9-10.9 15.5-4.7 4.7-9.9 8.4-15.7 11-5.8 2.7-11.6 4-17.4 4-5.9 0-11.7-1.3-17.4-4-5.8-2.7-10.9-6.3-15.5-11-4.7-4.6-8.4-9.8-11-15.5-2.7-5.8-4-11.6-4-17.4v-64c0-5.9 1.3-11.7 4-17.4 2.7-5.8 6.3-11 11-15.7 4.6-4.6 9.8-8.2 15.5-10.9 5.8-2.7 11.6-4 17.4-4 5.9 0 11.7 1.3 17.4 4 5.8 2.7 11 6.3 15.7 10.9 4.6 4.7 8.2 9.9 10.9 15.7s4 11.6 4 17.4h-28.8c0-2.3-.5-4.7-1.6-7-1.1-2.2-2.5-4.3-4.3-6.2-1.9-1.8-4-3.3-6.2-4.3-2.3-1.1-4.7-1.6-7-1.6s-4.6.5-6.9 1.6-4.4 2.5-6.2 4.3c-1.9 1.9-3.4 4-4.5 6.2-1.1 2.3-1.6 4.7-1.6 7v64c0 2.3.5 4.6 1.6 6.9s2.6 4.4 4.5 6.2c1.8 1.9 3.9 3.4 6.2 4.5 2.2 1.1 4.5 1.6 6.9 1.6 2.3 0 4.7-.5 7-1.6 2.2-1.1 4.3-2.6 6.2-4.5 1.8-1.8 3.3-3.9 4.3-6.2 1.1-2.2 1.6-4.5 1.6-6.9h28.8c0 5.8-1.3 11.6-4 17.4M284 228.5h-28.8v-66.1h-38.4v66.1H188v-160h28.8v65.1h38.4V68.5H284zm59.2-28.8-6.4 28.8H308l33.6-160h28.8l33.6 160h-27.2l-7-28.8zm6.6-28.8h13.1l-6.9-27.8zM428 68.5h28.8v160H428zm156.8 160h-96v-160h28.8v131.2h67.2zm117.6 0h-96v-160h28.8v131.2h67.2zm79.2-94.8v28.8h-28.8v37.3H820v28.8h-96v-160h96v28.8h-67.2v36.3zM904 114.9c0-4.8-1.7-9-5.1-12.5-3.5-3.4-7.7-5.1-12.5-5.1s-8.9 1.7-12.3 5.1c-3.5 3.5-5.3 7.7-5.3 12.5s1.8 8.9 5.3 12.3c3.4 3.5 7.5 5.3 12.3 5.3 5.9 0 11.7 1.3 17.4 4 5.8 2.7 11 6.3 15.7 10.9 4.6 4.7 8.2 9.9 10.9 15.7s4 11.6 4 17.4c0 5.9-1.3 11.7-4 17.4-2.7 5.8-6.3 10.9-10.9 15.5-4.7 4.7-9.9 8.4-15.7 11-5.8 2.7-11.6 4-17.4 4-5.9 0-11.7-1.3-17.4-4-5.8-2.7-10.9-6.3-15.5-11-4.7-4.6-8.4-9.8-11-15.5-2.7-5.8-4-11.6-4-17.4h28.8c0 2.3.5 4.6 1.6 6.9s2.6 4.4 4.5 6.2c1.8 1.9 3.9 3.4 6.2 4.5 2.2 1.1 4.5 1.6 6.9 1.6 2.3 0 4.7-.5 7-1.6 2.2-1.1 4.3-2.6 6.2-4.5 1.8-1.8 3.3-3.9 4.3-6.2 1.1-2.2 1.6-4.5 1.6-6.9 0-2.3-.5-4.7-1.6-7-1.1-2.2-2.5-4.3-4.3-6.2-1.9-1.8-4-3.3-6.2-4.3-2.3-1.1-4.7-1.6-7-1.6-5.9 0-11.6-1.3-17.1-3.8-5.7-2.6-10.7-6-15-10.4-4.4-4.4-7.8-9.4-10.4-15-2.6-5.5-3.8-11.3-3.8-17.1 0-5.9 1.3-11.6 3.8-17.3 2.6-5.5 6-10.6 10.4-15s9.4-7.8 15-10.4c5.5-2.5 11.3-3.7 17.1-3.7 5.9 0 11.6 1.2 17.3 3.7 5.5 2.6 10.6 6 15 10.4 4.4 4.5 7.8 9.5 10.4 15 2.5 5.7 3.7 11.4 3.7 17.3H904zM229 383c1.7-1.8 2.6-3.8 2.6-6.1s-.9-4.4-2.6-6.2c-1.8-1.7-3.9-2.6-6.2-2.6s-4.4.9-6.1 2.7c-1.8 1.8-2.7 3.8-2.7 6.1h-17.6q0-26.4 26.4-26.4c26.4 0 26.4 8.8 26.4 26.4v61.6h-26.4q-26.4 0-26.4-26.4c0-26.4 8.8-26.4 26.4-26.4 2.3 0 4.4-.9 6.2-2.7m-6.2-41.3-14.4-17.6h14.4l8.8 17.6zm6.2 58.9c-1.8 1.8-3.9 2.7-6.2 2.7s-4.4.9-6.1 2.7c-1.8 1.8-2.7 3.8-2.7 6.1 0 2.2.9 4.3 2.7 6.1 1.7 1.8 3.7 2.7 6.1 2.7 2.3 0 4.4-.9 6.2-2.7 1.7-1.8 2.6-3.8 2.6-6.1v-17.6c0 2.3-.9 4.3-2.6 6.1m194-55c1.3-1.6 2.6-3.5 4-5.6 1.3-2 2.4-4.2 3.4-6.6.9-2.3 1.3-4.6 1.3-6.9s-.5-4.7-1.6-7c-1.1-2.2-2.5-4.3-4.3-6.2-1.9-1.8-4-3.3-6.2-4.3-2.3-1.1-4.7-1.6-7-1.6s-4.6.5-6.9 1.6-4.4 2.5-6.2 4.3c-1.9 1.9-3.4 4-4.5 6.2-1.1 2.3-1.6 4.7-1.6 7h-28.8c0-5.9 1.3-11.7 4-17.4 2.7-5.8 6.3-11 11-15.7 4.6-4.6 9.8-8.2 15.5-10.9 5.8-2.7 11.6-4 17.4-4 5.9 0 11.7 1.3 17.4 4 5.8 2.7 11 6.3 15.7 10.9 4.6 4.7 8.2 9.9 10.9 15.7s4 11.6 4 17.4c0 4.6-.7 9-2.1 13.1q-2.1 6.45-5.4 11.7c-3.3 5.25-4.5 6.7-6.9 9.4-2.2 2.6-5.3 5.9-9.1 9.9-3 3.2-5.2 5.5-6.6 7l-28.5 32h58.6v28.8h-96v-28.8l54.1-59.2c1.3-1.3 2.8-3 4.4-4.8m88.8 88.9c-5.8-2.7-10.9-6.3-15.5-11-4.7-4.6-8.4-9.8-11-15.5-2.7-5.8-4-11.6-4-17.4v-64c0-5.9 1.3-11.7 4-17.4 2.7-5.8 6.3-11 11-15.7 4.6-4.6 9.8-8.2 15.5-10.9 5.8-2.7 11.6-4 17.4-4 5.9 0 11.7 1.3 17.4 4 5.8 2.7 11 6.3 15.7 10.9 4.6 4.7 8.2 9.9 10.9 15.7s4 11.6 4 17.4v64c0 5.9-1.3 11.7-4 17.4-2.7 5.8-6.3 10.9-10.9 15.5-4.7 4.7-9.9 8.4-15.7 11-5.8 2.7-11.6 4-17.4 4-5.9 0-11.7-1.3-17.4-4m24.4-26.4c2.2-1.1 4.3-2.6 6.2-4.5 1.8-1.8 3.3-3.9 4.3-6.2 1.1-2.2 1.6-4.5 1.6-6.9v-64c0-2.3-.5-4.7-1.6-7-1.1-2.2-2.5-4.3-4.3-6.2-1.9-1.8-4-3.3-6.2-4.3-2.3-1.1-4.7-1.6-7-1.6s-4.6.5-6.9 1.6-4.4 2.5-6.2 4.3c-1.9 1.9-3.4 4-4.5 6.2-1.1 2.3-1.6 4.7-1.6 7v64c0 2.3.5 4.6 1.6 6.9s2.6 4.4 4.5 6.2c1.8 1.9 3.9 3.4 6.2 4.5 2.2 1.1 4.5 1.6 6.9 1.6 2.3 0 4.7-.5 7-1.6m92.4 26.4c-5.8-2.7-10.9-6.3-15.5-11-4.7-4.6-8.4-9.8-11-15.5-2.7-5.8-4-11.6-4-17.4v-64c0-5.9 1.3-11.7 4-17.4 2.7-5.8 6.3-11 11-15.7 4.6-4.6 9.8-8.2 15.5-10.9 5.8-2.7 11.6-4 17.4-4 5.9 0 11.7 1.3 17.4 4 5.8 2.7 11 6.3 15.7 10.9 4.6 4.7 8.2 9.9 10.9 15.7s4 11.6 4 17.4v64c0 5.9-1.3 11.7-4 17.4-2.7 5.8-6.3 10.9-10.9 15.5-4.7 4.7-9.9 8.4-15.7 11-5.8 2.7-11.6 4-17.4 4-5.9 0-11.7-1.3-17.4-4m24.4-26.4c2.2-1.1 4.3-2.6 6.2-4.5 1.8-1.8 3.3-3.9 4.3-6.2 1.1-2.2 1.6-4.5 1.6-6.9v-64c0-2.3-.5-4.7-1.6-7-1.1-2.2-2.5-4.3-4.3-6.2-1.9-1.8-4-3.3-6.2-4.3-2.3-1.1-4.7-1.6-7-1.6s-4.6.5-6.9 1.6-4.4 2.5-6.2 4.3c-1.9 1.9-3.4 4-4.5 6.2-1.1 2.3-1.6 4.7-1.6 7v64c0 2.3.5 4.6 1.6 6.9s2.6 4.4 4.5 6.2c1.8 1.9 3.9 3.4 6.2 4.5 2.2 1.1 4.5 1.6 6.9 1.6 2.3 0 4.7-.5 7-1.6m150.6-31.2v61.6H786v-61.6c0-2.3-.9-4.4-2.6-6.2-1.8-1.7-3.9-2.6-6.2-2.6s-4.4.9-6.1 2.7c-1.8 1.8-2.7 3.8-2.7 6.1v61.6h-17.6v-61.6c0-2.3-.9-4.4-2.6-6.2-1.8-1.7-3.9-2.6-6.2-2.6s-4.4.9-6.1 2.7c-1.8 1.8-2.7 3.8-2.7 6.1v61.6h-17.6v-88h17.6v1c1.1-.3 2.2-.6 3.5-.8 1.2-.1 2.9-.2 5.3-.2 4.4 0 8 .4 10.9 1.3 2.8 1 5 2.1 6.7 3.5 2-1.4 4.4-2.6 7.2-3.5s6.2-1.3 10.4-1.3q26.4 0 26.4 26.4"/></svg>