<?xml version="1.0" encoding="UTF-8"?>
<svg version="1.1" viewBox="0 0 64 64" xmlns="http://www.w3.org/2000/svg"><path d="M0 0h64v64H0z"/><path d="M2.968 2.968h58.065v58.065H2.968z" fill="none" stroke="#fff" stroke-width="3.9351"/><path transform="translate(0 1.6)" d="M12.06 20.48c-1.495.257-5.893 8.342-4.921 8.342h49.723c1.035 0-4.035-9.2-5.179-8.285-5.18 4.143-12.43 5.178-19.681 5.178S17.499 24.68 12.32 20.537a.31.31 0 0 0-.26-.057m0 19.84c-1.495-.257-5.893-8.342-4.921-8.342h49.723c1.035 0-4.035 9.2-5.179 8.285-5.18-4.143-12.43-5.178-19.681-5.178S17.499 36.12 12.32 40.263a.31.31 0 0 1-.26.057" fill="#fff" stroke-linecap="square" stroke-miterlimit="6" stroke-width="9.7112" style="paint-order:markers stroke fill"/></svg>
