<svg xmlns="http://www.w3.org/2000/svg" viewBox="0 0 64 64"><path d="M0 0h64v64H0z"/><path fill="none" stroke="#fff" stroke-width="3.935" d="M2.967 2.967h58.065v58.065H2.967z"/><g fill="#fff" stroke-width="7.942" aria-label="TT" font-family="PoliceSNCF" font-size="15.884" font-weight="400" letter-spacing="0" style="line-height:1.25;font-variant-ligatures:normal;font-variant-caps:normal;font-variant-numeric:normal;font-feature-settings:normal;text-align:start" word-spacing="0"><path d="M129.92 21.348h3.336v-2.854h-9.524v2.854h3.335v13.03h2.854zm9.696 8.268h1.907q0 .357-.17.682-.155.357-.419.62-.28.28-.62.435-.357.155-.698.17-.357 0-.683-.17-.357-.155-.62-.434-.28-.264-.45-.62-.155-.342-.155-.683v-6.36q0-.356.155-.698t.45-.62q.263-.264.62-.419.341-.155.683-.17.356 0 .698.17.34.155.62.419.264.279.419.62.155.357.17.698h2.855q0-.868-.404-1.721-.403-.854-1.07-1.567-.698-.683-1.567-1.07-.853-.404-1.721-.404-.87 0-1.738.404-.853.403-1.535 1.07-.698.698-1.102 1.567-.403.853-.387 1.721v6.36q0 .869.387 1.722.404.853 1.102 1.55.682.699 1.535 1.087.853.403 1.738.403.868 0 1.721-.403.853-.404 1.567-1.086.682-.683 1.07-1.551.404-.853.404-1.722v-2.87h-4.762zm11.338-2.637-1.892-8.485h-2.87l3.335 15.884h2.87l3.335-15.884h-2.699z" aria-label="TGV" style="line-height:1.25;font-variant-ligatures:normal;font-variant-caps:normal;font-variant-numeric:normal;font-feature-settings:normal;text-align:start" transform="translate(-107.732 -4.842)"/><path d="M138.297 55.19h2.87V39.305h-2.87z" aria-label="1" style="line-height:1.25;font-variant-ligatures:normal;font-variant-caps:normal;font-variant-numeric:normal;font-feature-settings:normal;text-align:start" transform="translate(-107.732 -4.842)"/></g></svg>