<svg xmlns="http://www.w3.org/2000/svg" viewBox="0 0 500 500"><path d="M0 0h500v500H0z"/><g fill="#fff"><path d="M136.79 191.82 167.065 76h25.684l-42.48 142.188H132.69ZM110.327 76l30.078 115.82 4.395 26.368h-17.58L84.74 76Zm88.965 93.653v-8.496q0-12.305 3.027-21.778t8.594-15.82q5.664-6.445 13.281-9.668 7.617-3.32 16.797-3.32 9.375 0 16.992 3.32 7.715 3.223 13.282 9.668 5.664 6.348 8.69 15.82 3.028 9.473 3.028 21.778v8.496q0 12.305-3.027 21.777t-8.691 15.918q-5.567 6.348-13.184 9.57t-16.895 3.223q-9.18 0-16.894-3.223-7.617-3.222-13.281-9.57-5.664-6.445-8.692-15.918-3.027-9.473-3.027-21.777m22.754-8.496v8.496q0 7.91 1.367 13.867 1.367 5.86 3.906 9.766t6.055 5.859 7.812 1.953q4.786 0 8.301-1.953 3.613-1.953 5.957-5.86 2.442-3.906 3.613-9.765 1.172-5.957 1.172-13.867v-8.496q0-7.813-1.367-13.672-1.367-5.957-3.906-9.863-2.54-4.004-6.152-5.957-3.516-1.954-7.813-1.954-4.2 0-7.715 1.954-3.418 1.953-5.957 5.957-2.539 3.906-3.906 9.863-1.367 5.86-1.367 13.672m104.59-48.633v105.664H303.88V112.524ZM302.709 84.79q0-5.47 3.32-9.082 3.32-3.614 9.277-3.614 5.958 0 9.278 3.614t3.32 9.082q0 5.37-3.32 8.984t-9.278 3.613q-5.957 0-9.277-3.613t-3.32-8.984m88.574 135.351q-10.254 0-18.262-3.027-8.007-3.125-13.574-9.18-5.566-6.152-8.496-15.039-2.93-8.984-2.93-20.8v-10.157q0-13.379 3.028-23.047 3.125-9.766 8.593-16.016 5.47-6.25 12.891-9.277 7.52-3.027 16.309-3.027 9.96 0 17.285 3.222t12.012 9.668q4.785 6.446 7.03 15.918 2.345 9.473 2.345 21.778v11.426h-68.555v-17.188h46.094v-2.441q-.196-7.227-1.758-12.403-1.563-5.273-5.078-8.008-3.418-2.832-9.473-2.832-4.395 0-7.813 1.66-3.417 1.66-5.664 5.372-2.148 3.71-3.32 9.96-1.172 6.153-1.172 15.235v10.156q0 7.91 1.367 13.38 1.465 5.468 4.297 8.984 2.832 3.417 6.836 5.078 4.102 1.562 9.473 1.562 7.91 0 13.574-2.93 5.762-3.027 9.961-7.812l10.059 13.965q-2.832 3.808-7.618 7.52-4.785 3.613-11.62 5.956-6.739 2.344-15.821 2.344" aria-label="Voie"/><path d="M67.567 254.678h24.82l37.622 121.626 37.51-121.626h23.022l-50.313 163.516h-20.551zm-9.321 0h22.91l3.706 104.106v59.41H58.246Zm120.39 0h23.023v163.516h-26.616v-59.41Zm101.749 133.193 34.814-133.193h29.536l-48.852 163.516h-20.215zM249.95 254.678l34.59 133.193 5.054 30.323h-20.215l-48.853-163.516Zm204.058 141.504v22.012h-94.112v-18.98l44.585-57.837q7.3-9.77 11.23-16.846 4.044-7.187 5.616-12.915t1.572-11.23q0-7.637-2.134-13.477-2.021-5.84-6.064-9.096-4.043-3.37-9.883-3.37-7.3 0-12.016 3.931-4.717 3.819-6.963 10.67-2.246 6.737-2.246 15.497h-26.167q0-14.262 5.503-26.167 5.615-11.904 16.284-18.867 10.669-7.075 25.942-7.075 14.15 0 23.921 5.503 9.883 5.503 14.937 15.61 5.166 10.108 5.166 24.033 0 7.637-2.134 15.274-2.022 7.524-5.728 14.936t-8.984 14.937q-5.166 7.524-11.455 15.273l-28.189 38.184z" aria-label="MV2"/></g><path fill="none" stroke="#fff" stroke-width="24.258" d="M17.129 17.129h465.743v465.743H17.129z"/></svg>