<svg xmlns="http://www.w3.org/2000/svg" viewBox="0 0 64 64"><path d="M0 0h64v64H0z"/><path fill="none" stroke="#fff" stroke-width="3.935" d="M2.97 2.967h58.065v58.065H2.97z"/><g fill="#fff" stroke-linejoin="round" stroke-width="3.2"><path d="M25.137 14.243h5.879V9.21h-16.79v5.032h5.88v22.969h5.031zm18.758 0h5.879V9.21h-16.79v5.032h5.88v22.969h5.031z" aria-label="TT"/><path d="M20.427 46.49v-3.186h5.879V40.79h-8.408v14h8.408v-2.516h-5.879v-3.268h2.516V46.49zm11.471.82.602 2.434h-1.15zm1.203 4.963.629 2.516h2.379l-2.94-14H30.64l-2.94 14h2.53l.547-2.516zm12.865-7.424q0-.766-.328-1.517-.342-.725-.902-1.313-.588-.574-1.327-.902-.738-.328-1.503-.328t-1.504.328q-.739.341-1.313.902-.574.588-.916 1.313-.342.738-.328 1.517 0 .766.328 1.504.342.738.916 1.313t1.313.902q.724.342 1.504.342.314 0 .615.136.3.137.547.383.232.246.369.547.137.315.15.615 0 .315-.15.602-.137.314-.37.547-.245.246-.546.383-.315.136-.615.15-.315 0-.602-.15-.314-.137-.547-.383-.246-.233-.396-.547-.137-.3-.137-.602h-2.516q0 .766.342 1.518.356.752.97 1.367.602.615 1.354.957.752.356 1.532.356.765 0 1.517-.356.752-.355 1.381-.957.602-.601.943-1.367.356-.752.356-1.518t-.356-1.53q-.355-.753-.943-1.368-.615-.602-1.38-.957-.753-.356-1.518-.342-.63 0-1.08-.465-.465-.451-.465-1.08t.464-1.094q.452-.45 1.08-.45.63 0 1.094.45.451.465.438 1.094z" aria-label="EAS"/></g></svg>