<?xml version="1.0" encoding="UTF-8"?>
<svg version="1.1" viewBox="0 0 64 64" xmlns="http://www.w3.org/2000/svg"><path transform="translate(-14.08 32)" d="m14.08-32h64v64h-64z"/><path transform="translate(-14.08 32)" d="M17.048-29.032h58.065v58.065H17.048z" fill="none" stroke="#fff" stroke-width="3.9351"/><path d="m28.8 6.4h6.4v51.2h-6.4z" fill="#fff" stroke-linecap="round" stroke-linejoin="round" stroke-width=".40825"/><path transform="translate(13.718 -54.4)" d="M3.2 73.6h38.4v3.2H3.2z" style="paint-order:markers stroke fill"/><path transform="translate(13.718 -54.4)" d="M0 70.4V80h41.6v-3.2H3.2v-3.2h38.4v-3.2z" fill="#fff" style="paint-order:markers stroke fill"/><path transform="matrix(-1 0 0 1 50.282 -32)" d="M3.2 73.6h38.4v3.2H3.2z" style="paint-order:markers stroke fill"/><path transform="matrix(-1 0 0 1 50.282 -32)" d="M0 70.4V80h41.6v-3.2H3.2v-3.2h38.4v-3.2z" fill="#fff" style="paint-order:markers stroke fill"/></svg>
