<?xml version="1.0" encoding="UTF-8"?>
<svg version="1.1" viewBox="0 0 64 64" xmlns="http://www.w3.org/2000/svg"><path d="M0 0h64v64H0z"/><path d="M2.968 2.968h58.065v58.065H2.968z" fill="none" stroke="#fff" stroke-width="3.9351"/><path d="m21.641 36.805h-4.311q0 0.539-0.258 1.03-0.235 0.54-0.633 0.938-0.422 0.422-0.938 0.657-0.539 0.234-1.054 0.258-0.54 0-1.032-0.258-0.539-0.235-0.937-0.657-0.422-0.398-0.68-0.937-0.234-0.516-0.234-1.031v-9.61q0-0.539 0.234-1.054 0.235-0.516 0.68-0.938 0.398-0.398 0.937-0.633 0.516-0.234 1.032-0.257 0.539 0 1.054 0.257 0.516 0.235 0.938 0.633 0.398 0.422 0.633 0.938 0.234 0.539 0.258 1.054h4.312q0-1.312-0.61-2.601-0.609-1.29-1.617-2.367-1.054-1.032-2.367-1.618-1.29-0.609-2.602-0.609-1.313 0-2.625 0.61-1.29 0.609-2.32 1.617-1.055 1.054-1.665 2.367-0.609 1.289-0.586 2.601v9.61q0 1.312 0.586 2.601 0.61 1.29 1.664 2.344 1.032 1.055 2.32 1.64 1.29 0.61 2.626 0.61 1.312 0 2.601-0.61 1.29-0.609 2.367-1.64 1.032-1.031 1.618-2.344 0.61-1.289 0.61-2.601zm9.938-5.625 1.03 4.172h-1.968zm2.062 8.508 1.079 4.312h4.078l-5.039-24h-4.336l-5.039 24h4.336l0.938-4.313zm22.875-12.657q0-1.36-0.562-2.648-0.586-1.266-1.57-2.274-1.009-0.984-2.25-1.547-1.244-0.562-2.556-0.562h-7.22v24h7.22q1.312 0 2.601-0.61 1.266-0.609 2.344-1.64 1.031-1.031 1.617-2.344 0.61-1.265 0.61-2.578 0-0.82-0.212-1.617-0.21-0.773-0.562-1.406-0.352-0.657-0.75-1.125-0.375-0.47-0.773-0.75 0.304-0.328 0.656-0.844 0.328-0.469 0.68-1.125 0.304-0.633 0.515-1.383t0.211-1.547zm-6.937 6.89q0.539 0 1.054 0.235 0.516 0.258 0.938 0.68 0.398 0.422 0.633 0.937 0.234 0.54 0.234 1.032 0 0.539-0.234 1.03-0.235 0.54-0.633 0.938-0.422 0.422-0.938 0.657-0.539 0.234-1.054 0.258h-2.883v-5.766zm0-4.312h-2.883v-5.297h2.883q1.078 0 1.851 0.774 0.774 0.797 0.774 1.875t-0.774 1.852q-0.773 0.796-1.851 0.796" fill="#fff" style="font-feature-settings:normal;font-variant-caps:normal;font-variant-ligatures:normal;font-variant-numeric:normal" aria-label="CAB"/></svg>
