<?xml version="1.0" encoding="UTF-8"?>
<svg version="1.1" viewBox="0 0 512 256" xmlns="http://www.w3.org/2000/svg"><path d="m0 0h512v256h-512z"/><path d="m10.473 10.471h491.05v235.06h-491.05z" fill="none" stroke="#fff" stroke-width="9.8421"/><path d="m89.065 153.62h15.375q0 2.875-1.375 5.5-1.25 2.875-3.375 5-2.25 2.25-5 3.5-2.875 1.25-5.625 1.375-2.875 0-5.5-1.375-2.875-1.25-5-3.5-2.25-2.125-3.625-5-1.25-2.75-1.25-5.5v-51.25q0-2.875 1.25-5.625t3.625-5q2.125-2.125 5-3.375 2.75-1.25 5.5-1.375 2.875 0 5.625 1.375 2.75 1.25 5 3.375 2.125 2.25 3.375 5 1.25 2.875 1.375 5.625h23q0-7-3.25-13.875t-8.625-12.625q-5.625-5.5-12.625-8.625-6.875-3.25-13.875-3.25t-14 3.25q-6.875 3.25-12.375 8.625-5.625 5.625-8.875 12.625-3.25 6.875-3.125 13.875v51.25q0 7 3.125 13.875 3.25 6.875 8.875 12.5 5.5 5.625 12.375 8.75 6.875 3.25 14 3.25 7 0 13.875-3.25 6.875-3.25 12.625-8.75 5.5-5.5 8.625-12.5 3.25-6.875 3.25-13.875v-23.125h-38.375zm59.375 38.375h23.125v-128h-23.125zm80.625-59.625-15.25-68.375h-23.125l26.875 128h23.125l26.875-128h-21.75zm134.38-30.125q0-7-3.25-13.875-3.25-6.75-8.625-12.5-5.625-5.5-12.625-8.625-6.875-3.25-13.875-3.25h-38.5v128h23.125v-51.25h15.375q2.875 0 5.625 1.375 2.75 1.25 5 3.375 2.125 2.25 3.375 5 1.25 2.875 1.25 5.625v35.875h23.125v-35.875q0-6.625-1.5-11.625-1.625-5-3.875-8.125-2.25-3.25-4.125-4.75-1.875-1.375-3.25-2.375l0.25-0.25q1.5-1.5 3.375-3.5 1.75-2 4-5.625 2-3.5 3.625-8 1.5-4.5 1.5-9.625zm-38.375 15.5h-15.375v-30.75h15.375q2.875 0 5.625 1.375 2.75 1.25 5 3.375 2.125 2.25 3.375 5 1.25 2.875 1.25 5.625 0 2.875-1.25 5.5-1.25 2.875-3.375 5-2.25 2.25-5 3.625-2.75 1.25-5.625 1.25zm82.5-1.625v-29.125h53.75v-23h-76.875v128h76.875v-23h-53.75v-29.875h23v-23z" fill="#fff" stroke-linejoin="round" stroke-width="9.1429" aria-label="GIVRE"/></svg>
