<?xml version="1.0" encoding="UTF-8"?><svg xmlns="http://www.w3.org/2000/svg" viewBox="0 0 650 650"><g transform="translate(75,0)"><path d="M0 0h500v650H0Z"/><path fill="none" stroke="#fff" stroke-width="23.371" d="M15.685 15.685h468.63v618.63H15.685Z"/><path fill="#fff" d="M159.58 88.008c2.185-12.707 70.907-50.09 70.907-41.828v422.643c0 8.798-78.2-34.297-70.422-44.021 35.216-44.03 44.013-105.654 44.013-167.288 0-61.633-8.797-123.274-44.013-167.296a2.64 2.64 0 0 1-.484-2.21m180.839 0c-2.185-12.707-70.907-50.09-70.907-41.828v422.643c0 8.798 78.2-34.297 70.422-44.021-35.216-44.03-44.013-105.654-44.013-167.288 0-61.633 8.797-123.274 44.013-167.296a2.64 2.64 0 0 0 .484-2.21" paint-order="markers stroke fill"/><text xml:space="preserve" x="250.769" y="608.105" fill="#fff" stroke-width="20" font-family="Roboto Condensed" font-size="150" font-weight="400" style="line-height:0;-inkscape-font-specification:&quot;Roboto Condensed, Normal&quot;;font-variant-ligatures:normal;font-variant-caps:normal;font-variant-numeric:normal;font-variant-east-asian:normal;text-align:center" text-anchor="middle"><tspan x="250.769" y="608.105">25 000</tspan></text></g></svg>