<?xml version="1.0" encoding="UTF-8"?>
<svg version="1.1" viewBox="0 0 64 64" xmlns="http://www.w3.org/2000/svg"><g transform="translate(-107.73 -4.842)"><path d="m107.73 4.842h64v64h-64z"/><g fill="#333"><circle cx="111.73" cy="8.842" r="1.5" paint-order="markers stroke fill"/><circle cx="115.73" cy="8.842" r="1.5" paint-order="markers stroke fill"/><circle cx="119.73" cy="8.842" r="1.5" paint-order="markers stroke fill"/><circle cx="111.73" cy="12.842" r="1.5" paint-order="markers stroke fill"/><circle cx="115.73" cy="12.842" r="1.5" paint-order="markers stroke fill"/><circle cx="119.73" cy="12.842" r="1.5" paint-order="markers stroke fill"/><circle cx="111.73" cy="16.842" r="1.5" paint-order="markers stroke fill"/><circle cx="115.73" cy="16.842" r="1.5" paint-order="markers stroke fill"/><circle cx="119.73" cy="16.842" r="1.5" paint-order="markers stroke fill"/><circle cx="111.73" cy="20.842" r="1.5" paint-order="markers stroke fill"/><circle cx="115.73" cy="20.842" r="1.5" paint-order="markers stroke fill"/><circle cx="119.73" cy="20.842" r="1.5" paint-order="markers stroke fill"/><circle cx="111.73" cy="24.842" r="1.5" paint-order="markers stroke fill"/><circle cx="115.73" cy="24.842" r="1.5" paint-order="markers stroke fill"/><circle cx="119.73" cy="24.842" r="1.5" paint-order="markers stroke fill"/><circle cx="111.73" cy="28.842" r="1.5" paint-order="markers stroke fill"/><circle cx="115.73" cy="28.842" r="1.5" paint-order="markers stroke fill"/><circle cx="119.73" cy="28.842" r="1.5" paint-order="markers stroke fill"/><circle cx="111.73" cy="32.842" r="1.5" paint-order="markers stroke fill"/><circle cx="115.73" cy="32.842" r="1.5" paint-order="markers stroke fill"/></g><circle cx="119.73" cy="32.842" r="1.5" fill="#f60" paint-order="markers stroke fill"/><g fill="#333"><circle cx="111.73" cy="36.842" r="1.5" paint-order="markers stroke fill"/><circle cx="115.73" cy="36.842" r="1.5" paint-order="markers stroke fill"/><circle cx="119.73" cy="36.842" r="1.5" paint-order="markers stroke fill"/><circle cx="111.73" cy="40.842" r="1.5" paint-order="markers stroke fill"/><circle cx="115.73" cy="40.842" r="1.5" paint-order="markers stroke fill"/><circle cx="119.73" cy="40.842" r="1.5" paint-order="markers stroke fill"/><circle cx="111.73" cy="44.842" r="1.5" paint-order="markers stroke fill"/><circle cx="115.73" cy="44.842" r="1.5" paint-order="markers stroke fill"/><circle cx="119.73" cy="44.842" r="1.5" paint-order="markers stroke fill"/><circle cx="111.73" cy="48.842" r="1.5" paint-order="markers stroke fill"/><circle cx="115.73" cy="48.842" r="1.5" paint-order="markers stroke fill"/><circle cx="119.73" cy="48.842" r="1.5" paint-order="markers stroke fill"/><circle cx="111.73" cy="52.842" r="1.5" paint-order="markers stroke fill"/><circle cx="115.73" cy="52.842" r="1.5" paint-order="markers stroke fill"/><circle cx="119.73" cy="52.842" r="1.5" paint-order="markers stroke fill"/><circle cx="111.73" cy="56.842" r="1.5" paint-order="markers stroke fill"/><circle cx="115.73" cy="56.842" r="1.5" paint-order="markers stroke fill"/><circle cx="119.73" cy="56.842" r="1.5" paint-order="markers stroke fill"/><circle cx="111.73" cy="60.842" r="1.5" paint-order="markers stroke fill"/><circle cx="115.73" cy="60.842" r="1.5" paint-order="markers stroke fill"/><circle cx="119.73" cy="60.842" r="1.5" paint-order="markers stroke fill"/><circle cx="111.73" cy="64.842" r="1.5" paint-order="markers stroke fill"/><circle cx="115.73" cy="64.842" r="1.5" paint-order="markers stroke fill"/><circle cx="119.73" cy="64.842" r="1.5" paint-order="markers stroke fill"/><circle cx="123.73" cy="8.842" r="1.5" paint-order="markers stroke fill"/><circle cx="127.73" cy="8.842" r="1.5" paint-order="markers stroke fill"/><circle cx="131.73" cy="8.842" r="1.5" paint-order="markers stroke fill"/><circle cx="123.73" cy="12.842" r="1.5" paint-order="markers stroke fill"/><circle cx="127.73" cy="12.842" r="1.5" paint-order="markers stroke fill"/><circle cx="131.73" cy="12.842" r="1.5" paint-order="markers stroke fill"/><circle cx="123.73" cy="16.842" r="1.5" paint-order="markers stroke fill"/><circle cx="127.73" cy="16.842" r="1.5" paint-order="markers stroke fill"/><circle cx="131.73" cy="16.842" r="1.5" paint-order="markers stroke fill"/><circle cx="123.73" cy="20.842" r="1.5" paint-order="markers stroke fill"/><circle cx="127.73" cy="20.842" r="1.5" paint-order="markers stroke fill"/></g><circle cx="131.73" cy="20.842" r="1.5" fill="#f60" paint-order="markers stroke fill"/><circle cx="123.73" cy="24.842" r="1.5" fill="#333" paint-order="markers stroke fill"/><g fill="#f60"><circle cx="127.73" cy="24.842" r="1.5" paint-order="markers stroke fill"/><circle cx="131.73" cy="24.842" r="1.5" paint-order="markers stroke fill"/><circle cx="123.73" cy="28.842" r="1.5" paint-order="markers stroke fill"/></g><circle cx="127.73" cy="28.842" r="1.5" fill="#333" paint-order="markers stroke fill"/><circle cx="131.73" cy="28.842" r="1.5" fill="#f60" paint-order="markers stroke fill"/><circle cx="123.73" cy="32.842" r="1.5" fill="#333" paint-order="markers stroke fill"/><circle cx="127.73" cy="32.842" r="1.5" fill="#333" paint-order="markers stroke fill"/><circle cx="131.73" cy="32.842" r="1.5" fill="#f60" paint-order="markers stroke fill"/><circle cx="123.73" cy="36.842" r="1.5" fill="#333" paint-order="markers stroke fill"/><circle cx="127.73" cy="36.842" r="1.5" fill="#333" paint-order="markers stroke fill"/><circle cx="131.73" cy="36.842" r="1.5" fill="#f60" paint-order="markers stroke fill"/><circle cx="123.73" cy="40.842" r="1.5" fill="#333" paint-order="markers stroke fill"/><circle cx="127.73" cy="40.842" r="1.5" fill="#333" paint-order="markers stroke fill"/><circle cx="131.73" cy="40.842" r="1.5" fill="#f60" paint-order="markers stroke fill"/><circle cx="123.73" cy="44.842" r="1.5" fill="#333" paint-order="markers stroke fill"/><circle cx="127.73" cy="44.842" r="1.5" fill="#333" paint-order="markers stroke fill"/><circle cx="131.73" cy="44.842" r="1.5" fill="#f60" paint-order="markers stroke fill"/><circle cx="123.73" cy="48.842" r="1.5" fill="#333" paint-order="markers stroke fill"/><circle cx="127.73" cy="48.842" r="1.5" fill="#333" paint-order="markers stroke fill"/><circle cx="131.73" cy="48.842" r="1.5" fill="#f60" paint-order="markers stroke fill"/><circle cx="123.73" cy="52.842" r="1.5" fill="#333" paint-order="markers stroke fill"/><circle cx="127.73" cy="52.842" r="1.5" fill="#333" paint-order="markers stroke fill"/><circle cx="131.73" cy="52.842" r="1.5" fill="#f60" paint-order="markers stroke fill"/><g fill="#333"><circle cx="123.73" cy="56.842" r="1.5" paint-order="markers stroke fill"/><circle cx="127.73" cy="56.842" r="1.5" paint-order="markers stroke fill"/><circle cx="131.73" cy="56.842" r="1.5" paint-order="markers stroke fill"/><circle cx="123.73" cy="60.842" r="1.5" paint-order="markers stroke fill"/><circle cx="127.73" cy="60.842" r="1.5" paint-order="markers stroke fill"/><circle cx="131.73" cy="60.842" r="1.5" paint-order="markers stroke fill"/><circle cx="123.73" cy="64.842" r="1.5" paint-order="markers stroke fill"/><circle cx="127.73" cy="64.842" r="1.5" paint-order="markers stroke fill"/><circle cx="131.73" cy="64.842" r="1.5" paint-order="markers stroke fill"/><circle cx="135.73" cy="8.842" r="1.5" paint-order="markers stroke fill"/><circle cx="139.73" cy="8.842" r="1.5" paint-order="markers stroke fill"/><circle cx="143.73" cy="8.842" r="1.5" paint-order="markers stroke fill"/><circle cx="135.73" cy="12.842" r="1.5" paint-order="markers stroke fill"/><circle cx="139.73" cy="12.842" r="1.5" paint-order="markers stroke fill"/><circle cx="143.73" cy="12.842" r="1.5" paint-order="markers stroke fill"/><circle cx="135.73" cy="16.842" r="1.5" paint-order="markers stroke fill"/><circle cx="139.73" cy="16.842" r="1.5" paint-order="markers stroke fill"/><circle cx="143.73" cy="16.842" r="1.5" paint-order="markers stroke fill"/><circle cx="135.73" cy="20.842" r="1.5" paint-order="markers stroke fill"/><circle cx="139.73" cy="20.842" r="1.5" paint-order="markers stroke fill"/></g><circle cx="143.73" cy="20.842" r="1.5" fill="#f60" paint-order="markers stroke fill"/><circle cx="135.73" cy="24.842" r="1.5" fill="#333" paint-order="markers stroke fill"/><circle cx="139.73" cy="24.842" r="1.5" fill="#333" paint-order="markers stroke fill"/><circle cx="143.73" cy="24.842" r="1.5" fill="#f60" paint-order="markers stroke fill"/><circle cx="135.73" cy="28.842" r="1.5" fill="#333" paint-order="markers stroke fill"/><circle cx="139.73" cy="28.842" r="1.5" fill="#333" paint-order="markers stroke fill"/><circle cx="143.73" cy="28.842" r="1.5" fill="#f60" paint-order="markers stroke fill"/><circle cx="135.73" cy="32.842" r="1.5" fill="#333" paint-order="markers stroke fill"/><circle cx="139.73" cy="32.842" r="1.5" fill="#333" paint-order="markers stroke fill"/><circle cx="143.73" cy="32.842" r="1.5" fill="#f60" paint-order="markers stroke fill"/><g fill="#333"><circle cx="135.73" cy="36.842" r="1.5" paint-order="markers stroke fill"/><circle cx="139.73" cy="36.842" r="1.5" paint-order="markers stroke fill"/><circle cx="143.73" cy="36.842" r="1.5" paint-order="markers stroke fill"/><circle cx="135.73" cy="40.842" r="1.5" paint-order="markers stroke fill"/><circle cx="139.73" cy="40.842" r="1.5" paint-order="markers stroke fill"/><circle cx="143.73" cy="40.842" r="1.5" paint-order="markers stroke fill"/><circle cx="135.73" cy="44.842" r="1.5" paint-order="markers stroke fill"/><circle cx="139.73" cy="44.842" r="1.5" paint-order="markers stroke fill"/><circle cx="143.73" cy="44.842" r="1.5" paint-order="markers stroke fill"/><circle cx="135.73" cy="48.842" r="1.5" paint-order="markers stroke fill"/><circle cx="139.73" cy="48.842" r="1.5" paint-order="markers stroke fill"/><circle cx="143.73" cy="48.842" r="1.5" paint-order="markers stroke fill"/><circle cx="135.73" cy="52.842" r="1.5" paint-order="markers stroke fill"/><circle cx="139.73" cy="52.842" r="1.5" paint-order="markers stroke fill"/></g><circle cx="143.73" cy="52.842" r="1.5" fill="#f60" paint-order="markers stroke fill"/><g fill="#333"><circle cx="135.73" cy="56.842" r="1.5" paint-order="markers stroke fill"/><circle cx="139.73" cy="56.842" r="1.5" paint-order="markers stroke fill"/><circle cx="143.73" cy="56.842" r="1.5" paint-order="markers stroke fill"/><circle cx="135.73" cy="60.842" r="1.5" paint-order="markers stroke fill"/><circle cx="139.73" cy="60.842" r="1.5" paint-order="markers stroke fill"/><circle cx="143.73" cy="60.842" r="1.5" paint-order="markers stroke fill"/><circle cx="135.73" cy="64.842" r="1.5" paint-order="markers stroke fill"/><circle cx="139.73" cy="64.842" r="1.5" paint-order="markers stroke fill"/><circle cx="143.73" cy="64.842" r="1.5" paint-order="markers stroke fill"/><circle cx="147.73" cy="8.842" r="1.5" paint-order="markers stroke fill"/><circle cx="151.73" cy="8.842" r="1.5" paint-order="markers stroke fill"/><circle cx="155.73" cy="8.842" r="1.5" paint-order="markers stroke fill"/><circle cx="147.73" cy="12.842" r="1.5" paint-order="markers stroke fill"/><circle cx="151.73" cy="12.842" r="1.5" paint-order="markers stroke fill"/><circle cx="155.73" cy="12.842" r="1.5" paint-order="markers stroke fill"/><circle cx="147.73" cy="16.842" r="1.5" paint-order="markers stroke fill"/><circle cx="151.73" cy="16.842" r="1.5" paint-order="markers stroke fill"/><circle cx="155.73" cy="16.842" r="1.5" paint-order="markers stroke fill"/></g><g fill="#f60"><circle cx="147.73" cy="20.842" r="1.5" paint-order="markers stroke fill"/><circle cx="151.73" cy="20.842" r="1.5" paint-order="markers stroke fill"/><circle cx="155.73" cy="20.842" r="1.5" paint-order="markers stroke fill"/></g><g fill="#333"><circle cx="147.73" cy="24.842" r="1.5" paint-order="markers stroke fill"/><circle cx="151.73" cy="24.842" r="1.5" paint-order="markers stroke fill"/><circle cx="155.73" cy="24.842" r="1.5" paint-order="markers stroke fill"/><circle cx="147.73" cy="28.842" r="1.5" paint-order="markers stroke fill"/><circle cx="151.73" cy="28.842" r="1.5" paint-order="markers stroke fill"/><circle cx="155.73" cy="28.842" r="1.5" paint-order="markers stroke fill"/></g><circle cx="147.73" cy="32.842" r="1.5" fill="#f60" paint-order="markers stroke fill"/><circle cx="151.73" cy="32.842" r="1.5" fill="#f60" paint-order="markers stroke fill"/><g fill="#333"><circle cx="155.73" cy="32.842" r="1.5" paint-order="markers stroke fill"/><circle cx="147.73" cy="36.842" r="1.5" paint-order="markers stroke fill"/><circle cx="151.73" cy="36.842" r="1.5" paint-order="markers stroke fill"/></g><circle cx="155.73" cy="36.842" r="1.5" fill="#f60" paint-order="markers stroke fill"/><g fill="#333"><circle cx="147.73" cy="40.842" r="1.5" paint-order="markers stroke fill"/><circle cx="151.73" cy="40.842" r="1.5" paint-order="markers stroke fill"/><circle cx="155.73" cy="40.842" r="1.5" paint-order="markers stroke fill"/><circle cx="147.73" cy="44.842" r="1.5" paint-order="markers stroke fill"/><circle cx="151.73" cy="44.842" r="1.5" paint-order="markers stroke fill"/><circle cx="155.73" cy="44.842" r="1.5" paint-order="markers stroke fill"/><circle cx="147.73" cy="48.842" r="1.5" paint-order="markers stroke fill"/><circle cx="151.73" cy="48.842" r="1.5" paint-order="markers stroke fill"/></g><g fill="#f60"><circle cx="155.73" cy="48.842" r="1.5" paint-order="markers stroke fill"/><circle cx="147.73" cy="52.842" r="1.5" paint-order="markers stroke fill"/><circle cx="151.73" cy="52.842" r="1.5" paint-order="markers stroke fill"/></g><g fill="#333"><circle cx="155.73" cy="52.842" r="1.5" paint-order="markers stroke fill"/><circle cx="147.73" cy="56.842" r="1.5" paint-order="markers stroke fill"/><circle cx="151.73" cy="56.842" r="1.5" paint-order="markers stroke fill"/><circle cx="155.73" cy="56.842" r="1.5" paint-order="markers stroke fill"/><circle cx="147.73" cy="60.842" r="1.5" paint-order="markers stroke fill"/><circle cx="151.73" cy="60.842" r="1.5" paint-order="markers stroke fill"/><circle cx="155.73" cy="60.842" r="1.5" paint-order="markers stroke fill"/><circle cx="147.73" cy="64.842" r="1.5" paint-order="markers stroke fill"/><circle cx="151.73" cy="64.842" r="1.5" paint-order="markers stroke fill"/><circle cx="155.73" cy="64.842" r="1.5" paint-order="markers stroke fill"/><circle cx="159.73" cy="8.842" r="1.5" paint-order="markers stroke fill"/><circle cx="163.73" cy="8.842" r="1.5" paint-order="markers stroke fill"/><circle cx="167.73" cy="8.842" r="1.5" paint-order="markers stroke fill"/><circle cx="159.73" cy="12.842" r="1.5" paint-order="markers stroke fill"/><circle cx="163.73" cy="12.842" r="1.5" paint-order="markers stroke fill"/><circle cx="167.73" cy="12.842" r="1.5" paint-order="markers stroke fill"/><circle cx="159.73" cy="16.842" r="1.5" paint-order="markers stroke fill"/><circle cx="163.73" cy="16.842" r="1.5" paint-order="markers stroke fill"/><circle cx="167.73" cy="16.842" r="1.5" paint-order="markers stroke fill"/></g><circle cx="159.73" cy="20.842" r="1.5" fill="#f60" paint-order="markers stroke fill"/><g fill="#333"><circle cx="163.73" cy="20.842" r="1.5" paint-order="markers stroke fill"/><circle cx="167.73" cy="20.842" r="1.5" paint-order="markers stroke fill"/><circle cx="159.73" cy="24.842" r="1.5" paint-order="markers stroke fill"/><circle cx="163.73" cy="24.842" r="1.5" paint-order="markers stroke fill"/><circle cx="167.73" cy="24.842" r="1.5" paint-order="markers stroke fill"/><circle cx="159.73" cy="28.842" r="1.5" paint-order="markers stroke fill"/><circle cx="163.73" cy="28.842" r="1.5" paint-order="markers stroke fill"/><circle cx="167.73" cy="28.842" r="1.5" paint-order="markers stroke fill"/><circle cx="159.73" cy="32.842" r="1.5" paint-order="markers stroke fill"/><circle cx="163.73" cy="32.842" r="1.5" paint-order="markers stroke fill"/><circle cx="167.73" cy="32.842" r="1.5" paint-order="markers stroke fill"/><circle cx="159.73" cy="36.842" r="1.5" paint-order="markers stroke fill"/><circle cx="163.73" cy="36.842" r="1.5" paint-order="markers stroke fill"/><circle cx="167.73" cy="36.842" r="1.5" paint-order="markers stroke fill"/></g><circle cx="159.73" cy="40.842" r="1.5" fill="#f60" paint-order="markers stroke fill"/><circle cx="163.73" cy="40.842" r="1.5" fill="#333" paint-order="markers stroke fill"/><circle cx="167.73" cy="40.842" r="1.5" fill="#333" paint-order="markers stroke fill"/><circle cx="159.73" cy="44.842" r="1.5" fill="#f60" paint-order="markers stroke fill"/><g fill="#333"><circle cx="163.73" cy="44.842" r="1.5" paint-order="markers stroke fill"/><circle cx="167.73" cy="44.842" r="1.5" paint-order="markers stroke fill"/><circle cx="159.73" cy="48.842" r="1.5" paint-order="markers stroke fill"/><circle cx="163.73" cy="48.842" r="1.5" paint-order="markers stroke fill"/><circle cx="167.73" cy="48.842" r="1.5" paint-order="markers stroke fill"/><circle cx="159.73" cy="52.842" r="1.5" paint-order="markers stroke fill"/><circle cx="163.73" cy="52.842" r="1.5" paint-order="markers stroke fill"/><circle cx="167.73" cy="52.842" r="1.5" paint-order="markers stroke fill"/><circle cx="159.73" cy="56.842" r="1.5" paint-order="markers stroke fill"/><circle cx="163.73" cy="56.842" r="1.5" paint-order="markers stroke fill"/><circle cx="167.73" cy="56.842" r="1.5" paint-order="markers stroke fill"/><circle cx="159.73" cy="60.842" r="1.5" paint-order="markers stroke fill"/><circle cx="163.73" cy="60.842" r="1.5" paint-order="markers stroke fill"/><circle cx="167.73" cy="60.842" r="1.5" paint-order="markers stroke fill"/><circle cx="159.73" cy="64.842" r="1.5" paint-order="markers stroke fill"/><circle cx="163.73" cy="64.842" r="1.5" paint-order="markers stroke fill"/><circle cx="167.73" cy="64.842" r="1.5" paint-order="markers stroke fill"/></g></g></svg>
