<?xml version="1.0" encoding="UTF-8"?><svg xmlns="http://www.w3.org/2000/svg" viewBox="0 0 64 64"><path d="M0 0h64v64H0z"/><path fill="none" stroke="#fff" stroke-width="3.935" d="M2.97 2.967h58.065v58.065H2.97z"/><path fill="#fff" d="M24.664 25.994h5.39q0-1.64-.762-3.252-.761-1.611-2.021-2.959-1.318-1.289-2.959-2.021Q22.701 17 21.06 17t-3.281.762q-1.612.761-2.9 2.021-1.319 1.318-2.08 2.96-.762 1.61-.733 3.251v12.012q0 1.64.732 3.252.762 1.611 2.08 2.93 1.29 1.318 2.9 2.05Q19.39 47 21.06 47q1.64 0 3.252-.762t2.959-2.05q1.29-1.29 2.021-2.93.762-1.612.762-3.252t-.762-3.282q-.761-1.61-2.021-2.93-1.318-1.288-2.959-2.05-1.611-.762-3.252-.732-1.377 0-2.314.322-.938.351-1.29.586v-3.926q0-.674.294-1.318.292-.645.85-1.172.497-.498 1.171-.791.645-.293 1.29-.322.673 0 1.317.322.645.293 1.172.79.498.528.791 1.173.323.644.323 1.318m0 12.012q0 .674-.323 1.289-.293.674-.79 1.172-.528.527-1.173.82-.673.293-1.318.322-.674 0-1.289-.322-.674-.293-1.172-.82-.527-.498-.85-1.172-.292-.645-.292-1.29 0-.673.293-1.318.292-.644.85-1.171.497-.499 1.171-.82.645-.294 1.29-.294.673 0 1.317.293.645.293 1.172.82.498.528.791 1.172.323.645.323 1.319M42.945 47q1.64 0 3.252-.762t2.959-2.05q1.289-1.29 2.021-2.93.762-1.612.762-3.252V25.994q0-1.64-.762-3.252-.761-1.611-2.021-2.959-1.319-1.289-2.96-2.021Q44.586 17 42.945 17t-3.281.762q-1.612.761-2.9 2.021-1.32 1.318-2.08 2.96-.763 1.61-.733 3.251v12.012q0 1.64.732 3.252.762 1.611 2.08 2.93 1.29 1.318 2.9 2.05 1.641.762 3.282.762m0-5.39q-.674 0-1.29-.323-.673-.293-1.171-.82-.527-.498-.85-1.172-.293-.645-.293-1.29v-12.01q0-.674.293-1.318.293-.645.85-1.172.498-.498 1.172-.791.644-.293 1.289-.322.674 0 1.318.322.645.293 1.172.79.498.528.791 1.173.293.673.322 1.318v12.012q0 .674-.322 1.289-.293.674-.79 1.172-.528.527-1.173.82-.644.322-1.318.322" aria-label="60"/></svg>