<?xml version="1.0" encoding="UTF-8"?>
<svg version="1.1" viewBox="0 0 64 64" xmlns="http://www.w3.org/2000/svg"><path transform="rotate(44 -4.213 72.462)scale(.7)" d="m-42.268-5.158h64v64h-64z" fill="#fff"/><path transform="rotate(44 -4.213 72.462)scale(.7)" d="m-39.281-2.171h58.026v58.026h-58.026z" fill="none" stroke="#000" stroke-width="3.9739"/><g style="font-feature-settings:normal;font-variant-caps:normal;font-variant-ligatures:normal;font-variant-numeric:normal"><path transform="translate(-107.73 -4.842)" d="M124.659 45.842h3.252v-18h-3.252zm11.619 0q.984 0 1.951-.457t1.775-1.23q.774-.774 1.213-1.758.457-.967.457-1.952v-7.207q0-.984-.457-1.95-.457-.968-1.213-1.776-.79-.774-1.775-1.213-.967-.457-1.951-.457t-1.969.457q-.967.457-1.74 1.213-.791.79-1.248 1.775-.457.967-.44 1.951v7.207q0 .985.44 1.952.457.966 1.248 1.757.773.791 1.74 1.23.984.458 1.969.458m0-3.234q-.404 0-.774-.194-.404-.176-.703-.492-.316-.299-.51-.703-.175-.387-.175-.774v-7.207q0-.404.175-.79.176-.387.51-.704.3-.299.703-.474.387-.176.774-.194.404 0 .79.194.388.175.704.474.299.317.475.703.175.405.193.791v7.207q0 .405-.193.774-.176.404-.475.703-.316.316-.703.492-.387.194-.791.194m13.131 3.234q.984 0 1.95-.457.968-.457 1.776-1.23.774-.774 1.213-1.758.457-.967.457-1.952v-7.207q0-.984-.457-1.95-.457-.968-1.213-1.776-.79-.774-1.775-1.213-.967-.457-1.951-.457t-1.97.457q-.966.457-1.74 1.213-.79.79-1.247 1.775-.457.967-.44 1.951v7.207q0 .985.44 1.952.457.966 1.248 1.757.773.791 1.74 1.23.984.458 1.969.458m0-3.234q-.405 0-.774-.194-.404-.176-.703-.492-.316-.299-.51-.703-.175-.387-.175-.774v-7.207q0-.404.175-.79.176-.387.51-.704.299-.299.703-.474.387-.176.774-.194.404 0 .79.194.387.175.704.474.299.317.474.703.176.405.194.791v7.207q0 .405-.194.774-.175.404-.474.703-.317.316-.703.492-.387.194-.791.194" stroke-width="2.25" aria-label="100"/></g></svg>
