<?xml version="1.0" encoding="UTF-8"?>
<svg version="1.1" viewBox="0 0 500 350" xmlns="http://www.w3.org/2000/svg"><g transform="translate(0 -702.36)"><path transform="translate(0 702.36)" d="m0 0h500v350h-500z"/><path d="m17.857 714.86h464.29v325h-464.29z" fill="#1a1a1a"/><g fill="#333"><path d="m34.943 730.31h166.43v294.1h-166.43z"/><path d="m300.36 730.31h166.43v294.1h-166.43z"/><path d="m217.14 730.31h65.714v294.1h-65.714z"/></g><path d="m223.04 738.12h53.929v278.48h-53.929z" fill="#666"/><g fill="#fff"><path d="m196.9 811.43-30.776 2.407c-2.751-12.15-6.6481-20.975-11.691-26.477-8.3674-8.8255-18.683-13.238-30.947-13.239-9.8574 2.3e-4 -18.511 2.7511-25.961 8.2526-9.7428 7.1067-17.422 17.48-23.039 31.119-5.6164 13.64-8.5392 33.068-8.7684 58.284 7.4503-11.347 16.563-19.772 27.337-25.274 10.774-5.5016 22.064-8.2525 33.87-8.2526 20.632 1.6e-4 38.197 7.5937 52.697 22.781 14.499 15.187 21.749 34.816 21.749 58.886-1.8e-4 15.818-3.4101 30.518-10.23 44.1-6.8201 13.583-16.19 23.984-28.111 31.205-11.921 7.221-25.446 10.832-40.576 10.832-25.79 0-46.822-9.4848-63.098-28.454-16.276-18.97-24.414-50.232-24.414-93.788-1.3e-5 -48.713 8.9977-84.131 26.993-106.25 15.703-19.256 36.85-28.884 63.442-28.884 19.829 2.6e-4 36.077 5.5593 48.742 16.677 12.665 11.118 20.259 26.477 22.781 46.077zm-126.37 108.66c-4.9e-5 10.66 2.2637 20.861 6.7912 30.604 4.5274 9.7428 10.86 17.164 18.998 22.265 8.138 5.1006 16.677 7.6509 25.618 7.6509 13.067 3e-5 24.299-5.2725 33.698-15.818 9.3987-10.545 14.098-24.873 14.098-42.983-1.4e-4 -17.422-4.6423-31.148-13.926-41.177-9.2844-10.029-20.976-15.044-35.074-15.044-13.984 1.3e-4 -25.847 5.0148-35.59 15.044-9.7428 10.029-14.614 23.182-14.614 39.458z" style=""/><path d="m300.36 877.45c-1e-5 -30.175 3.1046-54.46 9.3137-72.856 6.2091-18.395 15.436-32.583 27.68-42.565 12.244-9.9808 27.651-14.971 46.22-14.972 13.695 2.6e-4 25.707 2.7566 36.036 8.2692 10.329 5.513 18.859 13.463 25.591 23.85 6.7312 10.387 12.012 23.038 15.842 37.951 3.8298 14.914 5.7447 35.021 5.7449 60.322-1.8e-4 29.943-3.0757 54.113-9.2267 72.508-6.1513 18.395-15.349 32.613-27.593 42.652-12.244 10.039-27.709 15.059-46.395 15.059-24.605 0-43.928-8.8205-57.971-26.461-16.829-21.239-25.243-55.824-25.243-103.76zm32.206 0c-4e-5 41.897 4.9034 69.781 14.71 83.65 9.8069 13.869 21.906 20.804 36.297 20.804 14.391 2e-5 26.49-6.9635 36.297-20.891 9.8068-13.927 14.71-41.781 14.71-83.562-1.5e-4 -42.013-4.9036-69.925-14.71-83.737-9.8071-13.811-22.022-20.716-36.646-20.717-14.391 2.3e-4 -25.881 6.0933-34.47 18.279-10.794 15.552-16.19 44.277-16.19 86.174z" style=""/></g></g></svg>
