<?xml version="1.0" encoding="UTF-8"?><svg xmlns="http://www.w3.org/2000/svg" viewBox="0 0 1414.2 1414.2"><path d="m707.107 0 707.107 707.107-707.107 707.107L0 707.107z"/><path fill="#fff" d="m707.107 98.995 608.112 608.112-608.112 608.112L98.995 707.107z"/><path d="M840.13 954.16c-18.7-8.7-35.5-20.6-50.4-35.9-15.3-14.9-27.2-31.7-35.9-50.4s-13-37.6-13-56.7v-208c0-19.1 4.3-38 13-56.7s20.6-35.7 35.9-51q22.35-22.35 50.4-35.4c28.05-13.05 37.6-13 56.7-13s38 4.3 56.7 13 35.7 20.5 51 35.4c14.9 15.3 26.7 32.2 35.4 51 8.7 18.7 13 37.6 13 56.7v208c0 19.1-4.3 38-13 56.7s-20.5 35.5-35.4 50.4c-15.3 15.3-32.2 27.2-51 35.9-18.7 8.7-37.6 13-56.7 13s-38-4.3-56.7-13m79.6-85.8c7.3-3.5 14-8.3 20.3-14.6 5.9-5.9 10.6-12.7 14-20.3 3.5-7.3 5.2-14.7 5.2-22.4v-207.9c0-7.6-1.7-15.3-5.2-22.9-3.5-7.3-8.1-14-14-20.3-6.2-5.9-13-10.6-20.3-14-7.6-3.5-15.3-5.2-22.9-5.2s-15.1 1.7-22.4 5.2c-7.6 3.5-14.4 8.1-20.3 14-6.2 6.2-11.1 13-14.6 20.3-3.5 7.6-5.2 15.3-5.2 22.9v208c0 7.6 1.7 15.1 5.2 22.4 3.5 7.6 8.3 14.4 14.6 20.3 5.9 6.2 12.7 11.1 20.3 14.6 7.3 3.5 14.7 5.2 22.4 5.2 7.6-.1 15.2-1.8 22.9-5.3"/><path d="M532.92 779.72h-67.539l67.539-145.23zm-171.64 0v93.945h171.64v93.438h93.438v-93.438h46.719V779.72h-46.719V447.1h-92.93z" aria-label="4"/></svg>